<svg width="20" height="21" viewBox="0 0 20 21" fill="none" xmlns="http://www.w3.org/2000/svg">
<path d="M15.5186 1.30512L0.748357 16.0754C-0.170175 16.9939 -0.17021 18.4885 0.749488 19.4082C1.66802 20.3267 3.16263 20.3267 4.08116 19.4082L18.8514 4.63792C19.77 3.71939 19.77 2.22478 18.8514 1.30625C17.9317 0.386548 16.4371 0.386583 15.5186 1.30512Z" fill="#F97794"/>
<path d="M4.08124 1.30512L18.8515 16.0754C19.77 16.9939 19.7701 18.4885 18.8504 19.4082C17.9318 20.3267 16.4372 20.3267 15.5187 19.4082L0.748432 4.63792C-0.1701 3.71939 -0.1701 2.22478 0.748432 1.30625C1.66813 0.386548 3.16271 0.386583 4.08124 1.30512Z" fill="#F97794"/>
</svg>
