<svg width="25" height="22" viewBox="0 0 25 22" fill="none" xmlns="http://www.w3.org/2000/svg">
<path fill-rule="evenodd" clip-rule="evenodd" d="M22.3191 0H2.25694C1.0125 0 0 1.0125 0 2.25694V13.8975C0 15.1419 1.0125 16.1544 2.25694 16.1544H9.73069L9.50531 20.0331H7.79906C7.38356 20.0331 7.04681 20.37 7.04681 20.7855C7.04681 21.201 7.38356 21.5378 7.79906 21.5378H16.7769C17.1924 21.5378 17.5292 21.201 17.5292 20.7855C17.5292 20.37 17.1924 20.0331 16.7769 20.0331H15.0707L14.8453 16.1544H22.3191C23.5635 16.1544 24.576 15.1419 24.576 13.8975V2.25694C24.576 1.0125 23.5635 0 22.3191 0ZM11.0124 20.0331L11.238 16.1546H13.338L13.5636 20.0331H11.0124ZM22.3191 14.6497C22.7338 14.6497 23.0713 14.3123 23.0713 13.8975V2.25694C23.0713 1.84219 22.734 1.50469 22.3191 1.50469H2.25694C1.84219 1.50469 1.50469 1.84219 1.50469 2.25694V13.8975C1.50469 14.3123 1.84219 14.6497 2.25694 14.6497H22.3191Z" fill="#C13B3B"/>
<path d="M9.0527 4.20977C8.73451 3.94259 8.25995 3.98421 7.99276 4.3024L5.23014 7.59359C4.99539 7.87334 4.99539 8.28134 5.23014 8.5609L7.99276 11.8523C8.26014 12.1706 8.7347 12.2119 9.0527 11.9447C9.37108 11.6777 9.41251 11.2032 9.14533 10.885L6.78864 8.07734L9.14533 5.26971C9.41233 4.95152 9.37089 4.47696 9.0527 4.20977Z" fill="#C13B3B"/>
<path d="M16.5832 4.30234C16.316 3.98396 15.8415 3.94253 15.5233 4.20971C15.2051 4.4769 15.1637 4.95146 15.4309 5.26965L17.7874 8.07728L15.4309 10.8849C15.1637 11.2031 15.2051 11.6777 15.5233 11.9447C15.8417 12.212 16.3162 12.1702 16.5832 11.8522L19.3459 8.56084C19.5806 8.28128 19.5806 7.87328 19.3459 7.59353L16.5832 4.30234Z" fill="#C13B3B"/>
<path d="M13.8692 4.08661C13.483 3.93342 13.0457 4.12261 12.8927 4.50904L10.2846 11.0914C10.1316 11.4777 10.3206 11.9149 10.7068 12.0681C11.0931 12.2211 11.5303 12.0321 11.6835 11.6457L14.2915 5.06311C14.4445 4.67686 14.2555 4.23961 13.8692 4.08661Z" fill="#C13B3B"/>
</svg>
