<svg width="995" height="682" viewBox="0 0 995 682" fill="none" xmlns="http://www.w3.org/2000/svg">
<path fill-rule="evenodd" clip-rule="evenodd" d="M36.422 72.6725C36.0896 73.9564 36.0662 75.3392 36.4282 76.7127C36.4663 76.8567 36.5178 76.9947 36.5621 77.1351L-53.2747 117.288L-220.559 -2.65715C-220.36 -2.99608 -220.195 -3.3534 -220.048 -3.71904L36.422 72.6725ZM261.613 244.929C261.425 246.025 261.455 247.175 261.755 248.32C261.952 249.065 262.254 249.755 262.629 250.386L128.713 348.296L43.5144 191.241C44.9991 190.251 46.098 188.8 46.6572 187.139L261.613 244.929ZM246.441 354.794C245.49 354.688 244.506 354.745 243.524 355.003C239.251 356.128 236.699 360.505 237.824 364.778C238.11 365.864 238.608 366.837 239.258 367.668L179.853 428.809C179.647 428.652 179.435 428.505 179.216 428.37L266.593 253.731C266.782 253.805 266.973 253.871 267.167 253.93L246.441 354.794ZM510.793 313.286C511.509 315.802 513.356 317.696 515.636 318.567L482.505 437.552C481.389 437.35 480.214 437.373 479.044 437.682C476.443 438.368 474.487 440.26 473.602 442.596L253.214 365.053C253.562 363.906 253.66 362.671 253.451 361.426L510.793 313.286ZM580.941 213.584L530.545 329.65L523.229 317.533C525.789 315.643 527.08 312.324 526.221 309.06C525.752 307.278 524.712 305.803 523.357 304.762L580.941 213.584ZM741.08 281.307C740.516 282.806 740.391 284.486 740.828 286.151C741.072 287.075 741.472 287.91 741.985 288.651L684.043 337.079L590.769 211.037C591.363 210.504 591.873 209.89 592.283 209.213L741.08 281.307ZM844.488 336.302C843.822 337.875 843.648 339.667 844.116 341.446C844.416 342.584 844.952 343.596 845.65 344.452L757.963 425.032C756.639 423.836 754.934 423.102 753.12 422.984L749.523 292.049C749.882 292.005 750.243 291.946 750.604 291.852C752.585 291.33 754.188 290.106 755.234 288.52L844.488 336.302ZM1145.05 245.108C1145.71 245.586 1146.43 245.959 1147.21 246.221L1108.79 364.509L1061.04 346.604C1061.36 345.33 1061.39 343.959 1061.02 342.597C1060.68 341.256 1060 340.086 1059.11 339.145L1145.05 245.108ZM1363.74 340.83C1362.69 341.383 1361.8 342.154 1361.1 343.073L1292.95 308.713L1313.85 237.06C1314.87 237.205 1315.95 237.153 1317.01 236.874C1317.46 236.754 1317.89 236.593 1318.3 236.405L1363.74 340.83ZM1347.51 460.338C1346.65 460.275 1345.76 460.343 1344.89 460.573C1342.89 461.098 1341.28 462.331 1340.24 463.926L1288.51 436.44L1362.11 353.842C1362.96 354.605 1363.96 355.177 1365.05 355.523L1347.51 460.338ZM1178.05 562.142C1177.83 561.816 1177.59 561.506 1177.33 561.221L1287.5 437.575L1339.55 465.23C1338.89 466.797 1338.72 468.58 1339.18 470.349C1339.29 470.772 1339.44 471.172 1339.62 471.559L1178.05 562.142ZM949.265 493.62C949.406 493.321 949.524 493.013 949.627 492.7L1052.12 515.942C1051.98 516.941 1052.04 517.984 1052.31 519.02C1053.06 521.877 1055.27 523.957 1057.92 524.691L1053.84 547.633C1052.96 547.559 1052.04 547.622 1051.13 547.862C1049.26 548.353 1047.73 549.468 1046.68 550.923L949.265 493.62ZM790.593 719.836C789.205 719.1 787.601 718.769 785.964 718.953L759.269 589.542C763.363 588.295 765.775 584.033 764.675 579.86C764.6 579.572 764.508 579.294 764.403 579.023L935.215 494.414C935.704 495.212 936.328 495.899 937.044 496.467L790.593 719.836ZM473.439 629.699L668.57 597.312L780.958 721.489C780.322 722.182 779.818 722.983 779.458 723.851L473.439 629.699ZM256.374 774.793L201.527 706.101L321.299 638.267C321.926 639.167 322.724 639.92 323.637 640.489L256.374 774.793ZM254.982 775.416L84.6949 775.198C84.6552 774.762 84.5875 774.327 84.4727 773.889C84.3578 773.454 84.202 773.044 84.0252 772.647L200.225 706.838L254.982 775.416ZM26.3852 886.309C25.6666 885.116 24.6607 884.149 23.4815 883.479L70.0412 780.302C71.875 783.107 75.3538 784.564 78.7729 783.665C82.1094 782.785 84.3877 779.921 84.6929 776.676L253.294 776.891L26.3852 886.309ZM-119.712 728.401C-119.566 727.374 -119.616 726.302 -119.897 725.236C-120.364 723.465 -121.394 721.995 -122.741 720.955L-50.4916 607.345L71.3693 769.996C70.3567 770.916 69.5949 772.076 69.1581 773.363L-119.712 728.401ZM-58.7437 600.121C-57.9655 599.916 -57.2468 599.601 -56.5942 599.2L-51.4397 606.081L-120.807 715.161L-63.6542 599.842C-62.1384 600.428 -60.4338 600.565 -58.7437 600.121ZM-42.6987 416.154C-44.6102 414.33 -47.3756 413.494 -50.118 414.164L-84.2782 327.361L-42.6987 416.154ZM-77.5264 216.887C-76.689 216.666 -75.9198 216.318 -75.229 215.872L-42.321 257.82L-87.9575 299.698C-88.997 298.766 -90.2691 298.122 -91.643 297.829L-79.973 217.14C-79.17 217.181 -78.3465 217.103 -77.5264 216.887ZM-211.458 187.989C-212.81 185.587 -215.312 184.046 -218.049 183.917L-226.364 1.22137C-226.051 1.1771 -225.738 1.12077 -225.426 1.03837C-223.808 0.613185 -222.439 -0.281483 -221.421 -1.45733L-54.8362 117.986L-211.458 187.989ZM32.2503 180.428C31.6343 181.438 31.2455 182.582 31.1236 183.781L-210.489 190.937C-210.534 190.584 -210.593 190.229 -210.686 189.874C-210.735 189.691 -210.797 189.515 -210.856 189.337L-53.4463 118.982L32.2503 180.428ZM72.1719 389.636C70.6073 387.869 68.3099 386.849 65.8907 386.939L40.7006 192.416C40.8379 192.387 40.9768 192.366 41.1147 192.329C41.4966 192.229 41.861 192.093 42.2143 191.942L127.51 349.176L72.1719 389.636ZM170.548 428.511C169.345 429.317 168.395 430.425 167.781 431.703L73.9045 396.999C74.2551 395.697 74.2874 394.29 73.9189 392.893C73.7225 392.148 73.4228 391.458 73.0459 390.827L128.221 350.486L170.548 428.511ZM241.457 369.604L213.298 440.538L182.986 434.983C182.973 434.366 182.895 433.742 182.732 433.12C182.396 431.844 181.765 430.727 180.939 429.81L240.273 368.744C240.641 369.068 241.037 369.354 241.457 369.604ZM473.09 445.638L288.359 452.554C288.315 452.221 288.257 451.887 288.17 451.553C287.043 447.279 282.668 444.727 278.394 445.854L278.215 445.91L248.54 370.161C250.364 369.431 251.795 368.081 252.656 366.423L473.21 444.025C473.116 444.552 473.074 445.092 473.09 445.638ZM580.067 414.543C577.788 416.225 576.522 419.041 576.879 421.944L488.835 443.458L488.82 443.382C488.238 441.174 486.784 439.432 484.93 438.413L530.759 332.863L580.067 414.543ZM584.678 213.034L584.098 413.016C583.658 413.057 583.217 413.125 582.776 413.241C582.268 413.375 581.786 413.557 581.329 413.778L531.481 331.201L582.945 212.674C583.503 212.858 584.084 212.977 584.678 213.034ZM590.447 415.306C589.145 414.016 587.424 413.199 585.575 413.021L586.156 213.038C586.595 212.997 587.036 212.93 587.477 212.813C588.238 212.614 588.942 212.305 589.582 211.917L682.908 338.028L590.447 415.306ZM747.27 425.004C745.908 426.224 744.996 427.882 744.704 429.695L592.674 419.522C592.638 419.329 592.602 419.135 592.55 418.941C592.308 418.017 591.906 417.182 591.394 416.441L683.788 339.219L747.27 425.004ZM848.651 346.733L808.895 447.799L760.419 432.636C760.674 431.447 760.669 430.183 760.337 428.926C760.061 427.875 759.586 426.931 758.967 426.117L846.683 345.508C847.276 346.011 847.94 346.423 848.651 346.733ZM1045.55 346.671C1045.95 348.16 1046.73 349.432 1047.78 350.421L976.177 444.241L858.632 343.645C859.277 342.611 859.685 341.436 859.808 340.201L1045.3 345.001C1045.33 345.556 1045.41 346.115 1045.55 346.671ZM1108.33 365.915L1061.81 509.182C1061.37 509.082 1060.92 509.018 1060.48 508.994L1054.3 352.564C1054.65 352.52 1054.99 352.462 1055.33 352.371C1057.73 351.74 1059.58 350.083 1060.55 347.996L1108.33 365.915ZM1151.8 246.377C1152.7 246.141 1153.51 245.755 1154.24 245.262L1254.54 415.229C1253.46 416.012 1252.6 417.043 1252.02 418.223L1110.18 365.028L1148.65 246.565C1149.67 246.709 1150.73 246.658 1151.8 246.377ZM1260.74 413.862C1259.59 413.64 1258.39 413.656 1257.18 413.973C1256.7 414.101 1256.25 414.273 1255.81 414.478L1155.39 244.313C1156.1 243.607 1156.67 242.775 1157.07 241.864L1291.18 309.478L1260.74 413.862ZM1359.74 349.941C1359.83 350.314 1359.97 350.671 1360.12 351.018L1265.35 416.575C1264.49 415.551 1263.39 414.765 1262.16 414.278L1292.53 310.155L1360.32 344.333C1359.48 346.01 1359.22 347.985 1359.74 349.941ZM1266.6 424.793C1267.25 423.226 1267.43 421.443 1266.96 419.673C1266.79 418.998 1266.52 418.372 1266.19 417.79L1360.82 352.33C1360.92 352.473 1361.01 352.617 1361.11 352.752L1287.17 435.726L1266.6 424.793ZM1255.73 428.904C1257.4 429.71 1259.33 429.955 1261.25 429.447C1263.24 428.923 1264.85 427.691 1265.9 426.097L1286.16 436.863L1176.26 560.196L1255.73 428.904ZM1060.91 553.561C1060.75 552.965 1060.53 552.405 1060.25 551.881L1091.28 531.721L1163.89 564.108C1163.78 564.463 1163.68 564.829 1163.62 565.2L1061.17 555.606C1061.16 554.932 1061.09 554.246 1060.91 553.561ZM1062.08 524.72C1064.27 524.146 1065.99 522.723 1067.02 520.9L1089.67 531.003L1059.45 550.639C1058.39 549.301 1056.93 548.343 1055.3 547.892L1059.38 524.949C1060.27 525.024 1061.17 524.959 1062.08 524.72ZM949.763 488.18C949.359 486.644 948.53 485.336 947.441 484.336L976.408 446.379L1053.51 512.365C1053.06 513.019 1052.7 513.739 1052.44 514.502L949.957 491.261C950.088 490.259 950.036 489.218 949.763 488.18ZM760.539 574.761L809.766 449.619L934.208 488.543C933.952 489.734 933.957 490.997 934.288 492.255C934.364 492.542 934.456 492.82 934.56 493.091L763.75 577.7C762.964 576.425 761.841 575.419 760.539 574.761ZM611.321 531.859C611.893 531.236 612.365 530.53 612.714 529.764L749.21 579.848C748.985 580.69 748.896 581.574 748.962 582.474L669.124 595.724L611.321 531.859ZM599.357 531.648C601.29 533.904 604.403 534.997 607.469 534.189C608.499 533.918 609.426 533.454 610.229 532.852L667.391 596.011L470 628.772C469.821 628.284 469.6 627.825 469.339 627.394L599.357 531.648ZM335.599 631.665C335.219 630.222 334.463 628.982 333.47 628.007L388.706 560.444L456.281 626.486C455.268 627.736 454.641 629.276 454.518 630.911L335.806 632.834C335.763 632.445 335.703 632.055 335.599 631.665ZM176.215 674.4L320.348 636.444C320.415 636.628 320.494 636.806 320.572 636.98L200.593 704.932L176.215 674.4ZM82.6849 770.584L162.402 682.414C164.29 683.824 166.775 684.397 169.231 683.749C173.009 682.754 175.436 679.219 175.172 675.46L199.291 705.669L83.2972 771.361C83.1077 771.088 82.9044 770.829 82.6849 770.584ZM2.00928 524.787C3.52282 525.564 5.28607 525.866 7.0617 525.546L73.9612 768.025L73.7415 768.514C73.3228 768.681 72.9251 768.879 72.5501 769.109L-49.6446 606.013L2.00928 524.787ZM-53.0429 590.345C-53.3922 589.018 -54.0567 587.856 -54.9345 586.918L0.103703 525.03L-50.5927 604.749L-55.4144 598.312C-53.2718 596.37 -52.2565 593.334 -53.0429 590.345ZM-49.3148 429.858L-55.551 512.89L-126.598 508.196C-126.613 507.591 -126.691 506.98 -126.852 506.37C-127.159 505.202 -127.716 504.168 -128.441 503.297L-53.3269 428.085C-52.1869 429.028 -50.8001 429.653 -49.3148 429.858ZM-86.8673 310.4L58.8667 391.696C58.1583 393.299 57.9622 395.142 58.4439 396.969C58.9897 399.042 60.3049 400.705 61.9985 401.743L8.515 510.21C7.00286 509.629 5.30412 509.494 3.62008 509.937C3.39032 509.998 3.16763 510.071 2.94861 510.15L-89.5166 312.691C-88.4564 312.124 -87.5573 311.336 -86.8673 310.4ZM167.256 437.195C167.327 437.465 167.412 437.727 167.508 437.983L114.698 463.717L71.3193 401.055C72.1969 400.317 72.9041 399.407 73.3936 398.385L167.269 433.089C166.92 434.392 166.889 435.798 167.256 437.195ZM212.742 441.937L173.943 539.677C173.239 539.469 172.503 539.359 171.752 539.354L175.856 443.103C176.247 443.06 176.639 442.998 177.031 442.895C180.176 442.067 182.381 439.477 182.882 436.466L212.742 441.937ZM582.168 428.53L547.032 487.7L487.95 449.518C488.759 448.161 489.171 446.564 489.067 444.923L577.194 423.387C577.976 425.866 579.863 427.72 582.168 428.53ZM613.169 524.414C612.999 523.766 612.746 523.164 612.438 522.603L661.165 491.051L750.683 576.921C750.305 577.398 749.979 577.912 749.717 578.461L613.2 528.368C613.513 527.109 613.523 525.757 613.169 524.414ZM467.192 625.049L547.52 489.772L598.399 522.652C597.466 524.377 597.156 526.443 597.693 528.489C597.879 529.191 598.159 529.841 598.503 530.44L468.462 626.205C468.078 625.775 467.654 625.384 467.192 625.049ZM389.645 559.295L477.079 452.346C477.907 452.825 478.822 453.152 479.779 453.31L462.556 623.526C461.86 623.52 461.155 623.597 460.451 623.782C459.253 624.098 458.197 624.676 457.313 625.429L389.645 559.295ZM326.548 625.812L283.174 461.103C284.086 460.772 284.901 460.284 285.608 459.683L387.646 559.407L332.328 627.072C330.676 625.96 328.624 625.463 326.548 625.812ZM8.48813 525.159C9.36119 524.83 10.1424 524.353 10.8245 523.774L131.576 642.134L79.2297 768.33C78.0549 767.942 76.7794 767.819 75.4931 768.022L8.48813 525.159ZM272.694 455.629C272.945 456.584 273.367 457.448 273.907 458.209L176.934 541.302C176.441 540.876 175.896 540.517 175.317 540.224L214.225 442.209L272.469 452.882C272.389 453.781 272.451 454.707 272.694 455.629ZM286.64 458.625C287.687 457.331 288.326 455.729 288.419 454.03L473.271 447.11C473.296 447.226 473.314 447.341 473.345 447.457C473.774 449.089 474.681 450.468 475.871 451.489L388.584 558.259L286.64 458.625ZM168.21 668.079L172.153 555.336C172.677 555.306 173.204 555.224 173.731 555.085C175.828 554.533 177.508 553.195 178.545 551.472L218.463 573.681L170.146 668.585C169.528 668.338 168.879 668.165 168.21 668.079ZM169.326 554.982C169.748 555.115 170.182 555.217 170.626 555.277L168.267 623.553L166.731 668.025C166.207 668.054 165.681 668.136 165.156 668.274C163.962 668.59 162.908 669.164 162.026 669.914L133.322 641.778L169.326 554.982ZM11.8575 522.719C12.553 521.863 13.0674 520.871 13.3626 519.803L163.726 546.674C163.652 547.561 163.716 548.475 163.956 549.385C164.549 551.639 166.052 553.406 167.962 554.416L132.186 640.664L11.8575 522.719ZM163.988 545.22L13.6227 518.349C13.6977 517.462 13.6333 516.548 13.3943 515.637C13.3229 515.368 13.238 515.105 13.1427 514.849L114.205 465.601L166.556 541.223C165.313 542.267 164.418 543.664 163.988 545.22ZM179.431 545.311C179.178 544.346 178.75 543.476 178.204 542.709L274.886 459.348C275.278 459.724 275.705 460.059 276.162 460.348L219.133 572.364L179.186 550.139C179.745 548.644 179.868 546.97 179.431 545.311ZM81.5982 769.581C81.2765 769.336 80.9382 769.114 80.5848 768.921L132.712 643.249L160.992 670.968C159.437 672.883 158.78 675.481 159.456 678.05C159.799 679.356 160.448 680.497 161.304 681.426L81.5982 769.581ZM325.119 626.187C323.504 626.775 322.181 627.845 321.265 629.186L220.425 573.082L277.48 461.019C278.799 461.544 280.266 461.729 281.745 461.48L325.119 626.187ZM546.278 488.97L465.92 624.295C465.319 624.011 464.683 623.805 464.025 623.676L479.747 468.312L481.254 453.412C481.872 453.398 482.496 453.321 483.119 453.156C484.713 452.737 486.066 451.865 487.08 450.716L546.278 488.97ZM586.852 428.716C587.503 428.544 588.108 428.289 588.671 427.979L603.408 518.711L603.394 518.714C601.682 519.166 600.253 520.143 599.22 521.422L548.274 488.502L583.667 428.899C584.7 429.049 585.778 428.999 586.852 428.716ZM746.315 435.914C747.714 437.688 749.817 438.8 752.091 438.945L755.149 545.394L755.972 573.963C755.615 574.007 755.258 574.065 754.901 574.161C753.677 574.482 752.602 575.078 751.705 575.855L662.439 490.226L746.315 435.914ZM604.867 518.474L590.018 427.046C590.807 426.368 591.452 425.547 591.923 424.63L660.07 490.001L611.612 521.38C609.991 519.407 607.486 518.285 604.867 518.474ZM744.862 433.001C745.019 433.595 745.243 434.15 745.516 434.671L661.345 489.175L592.509 423.146C592.702 422.459 592.805 421.742 592.808 421.011L744.608 431.17C744.623 431.776 744.702 432.39 744.862 433.001ZM174.375 443.129L170.267 539.481C170.064 539.518 169.86 539.556 169.656 539.611C168.981 539.788 168.352 540.056 167.77 540.383L115.548 464.947L168.158 439.311C169.494 441.512 171.821 442.93 174.375 443.129ZM68.2191 402.668C68.8942 402.49 69.5224 402.222 70.1037 401.895L113.354 464.372L12.4926 513.522C11.8247 512.422 10.9085 511.519 9.83975 510.862L63.3232 402.396C64.8354 402.976 66.5331 403.112 68.2191 402.668ZM-47.8398 429.924C-47.2905 429.896 -46.7375 429.815 -46.185 429.67C-45.6469 429.528 -45.137 429.333 -44.6563 429.096L1.13091 511.086C-0.677101 512.328 -1.89696 514.261 -2.24088 516.412L-54.0772 512.987L-47.8398 429.924ZM-59.4477 584.499L-54.1882 514.46L-2.33597 517.887C-2.32012 518.492 -2.24155 519.103 -2.08176 519.714C-1.73143 521.04 -1.0669 522.202 -0.190084 523.139L-56.041 585.941C-57.0411 585.205 -58.2083 584.709 -59.4477 584.499ZM-126.691 509.671L-55.662 514.363L-60.9207 584.39C-61.5481 584.402 -62.1839 584.478 -62.8181 584.645C-63.8078 584.907 -64.6996 585.346 -65.4812 585.915L-128.78 513.899C-127.682 512.736 -126.946 511.263 -126.691 509.671ZM174.706 673.27C174.083 671.557 172.919 670.174 171.462 669.255L219.755 574.399L320.545 630.477C319.931 631.864 319.706 633.433 319.973 635.016L174.706 673.27ZM808.354 449.178L759.164 574.22C758.608 574.058 758.034 573.954 757.448 573.916L753.566 438.899C753.923 438.855 754.281 438.796 754.638 438.701C757.142 438.041 759.047 436.263 759.976 434.045L808.354 449.178ZM853.891 347.145C854.556 346.971 855.175 346.708 855.749 346.388L937.325 483.749C936.131 484.618 935.212 485.795 934.65 487.136L810.308 448.242L850.055 347.201C851.28 347.486 852.589 347.488 853.891 347.145ZM975.283 445.417L946.267 483.443C944.459 482.312 942.212 481.894 939.987 482.48C939.499 482.609 939.035 482.785 938.595 482.994L856.971 345.55C857.242 345.323 857.498 345.081 857.735 344.823L975.283 445.417ZM1052.82 352.619L1059 509.058C1058.66 509.102 1058.34 509.159 1058.01 509.245C1056.63 509.609 1055.43 510.315 1054.47 511.243L977.303 445.201L1048.93 351.336C1050.09 352.084 1051.43 352.539 1052.82 352.619ZM1251.49 423.748C1251.55 423.999 1251.63 424.243 1251.72 424.481L1066.91 512.881C1066.04 511.418 1064.73 510.297 1063.21 509.64L1109.72 366.434L1251.51 419.607C1251.14 420.918 1251.11 422.338 1251.49 423.748ZM1067.79 514.945C1067.72 514.695 1067.64 514.451 1067.55 514.212L1249.31 427.273L1091.14 530.042L1067.63 519.552C1068.11 518.114 1068.2 516.524 1067.79 514.945ZM1169.44 558.941C1167.25 559.514 1165.53 560.937 1164.5 562.76L1092.76 530.76L1252.95 426.669C1253.39 427.229 1253.9 427.722 1254.47 428.141L1174.96 559.485C1173.3 558.678 1171.36 558.434 1169.44 558.941ZM247.118 370.579L276.838 446.443C274.799 447.465 273.335 449.3 272.735 451.429L214.781 440.809L242.793 370.242C244.138 370.741 245.625 370.877 247.118 370.579ZM33.4637 190.284C34.9775 191.774 37.0509 192.628 39.2323 192.585L64.4266 387.133C64.3329 387.154 64.2387 387.169 64.1437 387.193C63.3053 387.414 62.5371 387.763 61.8464 388.208L-40.3146 257.985L33.4637 190.284ZM-74.0658 214.963C-72.275 213.266 -71.3288 210.787 -71.6238 208.239L31.3393 186.631C31.5839 187.563 31.9921 188.406 32.5112 189.153L-41.2285 256.818L-74.0658 214.963ZM-71.9287 206.793C-73.1853 202.715 -77.4383 200.316 -81.6019 201.412C-84.6033 202.203 -86.7497 204.599 -87.3741 207.435L-208.777 192.365L30.6183 185.273L-71.9287 206.793ZM-85.5627 303.613C-85.8414 302.553 -86.3231 301.599 -86.9505 300.78L-41.4051 258.986L60.6831 389.118C60.2698 389.509 59.9076 389.943 59.5894 390.408L-86.1032 309.135C-85.3004 307.474 -85.0565 305.535 -85.5627 303.613ZM-40.2409 421.402L-3.7883 499.248L-43.4008 428.316C-41.2798 426.712 -40.0579 424.119 -40.2409 421.402ZM784.516 719.252C783.605 719.53 782.776 719.953 782.051 720.496L670.301 597.025L749.2 583.93L749.201 583.935C750.225 587.824 753.942 590.277 757.823 589.841L784.516 719.252ZM1306.99 229.614C1307.02 230.13 1307.1 230.653 1307.24 231.173C1307.95 233.87 1309.95 235.879 1312.41 236.713L1291.61 308.036L1157.55 240.45C1157.73 239.712 1157.79 238.943 1157.74 238.163L1306.99 229.614ZM748.046 292.094L751.643 423.028C751.283 423.072 750.923 423.132 750.562 423.226C749.801 423.428 749.097 423.734 748.456 424.123L684.923 338.27L742.933 289.786C744.292 291.133 746.105 291.969 748.046 292.094ZM520.521 318.835C521.028 318.7 521.509 318.517 521.967 318.298L529.822 331.311L484.658 435.326L517.06 318.963C518.176 319.166 519.351 319.142 520.521 318.835ZM265.272 253.071L177.895 427.708C176.372 427.115 174.657 426.972 172.956 427.421C172.57 427.521 172.204 427.659 171.848 427.809L129.425 349.607L263.503 251.578C264.021 252.161 264.616 252.663 265.272 253.071ZM43.4481 82.6358L38.563 176.609C38.0565 176.642 37.5468 176.72 37.0382 176.854C35.4717 177.266 34.1379 178.119 33.1301 179.242L-51.8848 118.285L37.1427 78.4939C38.4243 80.852 40.8084 82.3971 43.4481 82.6358ZM-229.5 -14.4366C-233.774 -13.3109 -236.327 -8.93535 -235.201 -4.66143C-234.289 -1.1973 -231.239 1.13513 -227.84 1.29463L-219.524 183.991C-219.835 184.035 -220.149 184.091 -220.462 184.174C-224.735 185.298 -227.286 189.676 -226.161 193.949C-225.037 198.222 -220.659 200.775 -216.386 199.65C-213.385 198.859 -211.238 196.461 -210.613 193.626L-87.5589 208.902C-87.5814 209.654 -87.5037 210.421 -87.3017 211.187C-86.5254 214.135 -84.203 216.261 -81.4359 216.929L-93.1105 297.656C-93.8441 297.639 -94.5924 297.717 -95.3378 297.912C-99.6118 299.039 -102.163 303.413 -101.038 307.687C-99.9208 311.929 -95.6006 314.471 -91.357 313.407L-51.5141 414.647C-55.0137 416.225 -56.9702 420.135 -55.9603 423.97C-55.6529 425.136 -55.0967 426.171 -54.3726 427.041L-129.487 502.255C-131.406 500.665 -134.033 499.988 -136.627 500.67C-140.9 501.796 -143.452 506.172 -142.326 510.446C-141.202 514.719 -136.825 517.27 -132.552 516.147C-131.561 515.885 -130.669 515.443 -129.889 514.876L-66.59 586.891C-68.423 588.835 -69.2482 591.646 -68.5179 594.42C-67.9737 596.487 -66.6634 598.148 -64.9768 599.188L-124.761 719.814C-126.277 719.229 -127.981 719.09 -129.673 719.536C-133.946 720.662 -136.498 725.038 -135.373 729.311C-134.247 733.585 -129.871 736.137 -125.597 735.011C-122.9 734.301 -120.892 732.295 -120.058 729.838L68.8121 774.799C68.6651 775.825 68.7164 776.899 68.9977 777.965C69.054 778.177 69.1239 778.383 69.1958 778.586L22.1358 882.869C20.6891 882.369 19.0856 882.277 17.4945 882.696C13.2206 883.822 10.6692 888.198 11.7948 892.471C12.9195 896.744 17.2971 899.296 21.569 898.171C25.8429 897.046 28.3954 892.67 27.2698 888.396C27.2007 888.137 27.1211 887.884 27.029 887.638L256.308 777.077L256.661 777.521L257.065 776.714L259.742 775.422L257.713 775.419L324.958 641.149C326.481 641.744 328.196 641.887 329.9 641.439C333.284 640.548 335.58 637.615 335.833 634.311L454.544 632.388C454.587 632.778 454.648 633.168 454.751 633.558C455.877 637.831 460.253 640.383 464.526 639.259C468.524 638.205 471.015 634.306 470.397 630.308L779.023 725.261C778.775 726.441 778.783 727.691 779.111 728.934C780.235 733.207 784.612 735.759 788.885 734.634C793.159 733.509 795.711 729.132 794.585 724.859C794.128 723.126 793.132 721.682 791.829 720.645L938.28 497.278C939.995 498.188 942.038 498.489 944.064 497.954C945.933 497.463 947.472 496.349 948.518 494.894L1045.94 552.198C1045.16 553.839 1044.94 555.748 1045.44 557.637C1046.56 561.911 1050.93 564.462 1055.21 563.337C1058.3 562.525 1060.48 560.015 1061.03 557.078L1163.48 566.672C1163.48 567.346 1163.56 568.032 1163.73 568.716C1164.86 572.989 1169.24 575.541 1173.51 574.416C1177.79 573.29 1180.34 568.914 1179.21 564.641C1179.1 564.219 1178.95 563.818 1178.78 563.431L1340.34 472.849C1342.2 475.547 1345.61 476.931 1348.96 476.05C1353.24 474.925 1355.79 470.548 1354.66 466.274C1353.9 463.389 1351.65 461.294 1348.97 460.581L1366.5 355.841C1367.48 355.961 1368.49 355.907 1369.52 355.642C1373.78 354.516 1376.34 350.139 1375.21 345.865C1374.09 341.592 1369.71 339.041 1365.44 340.165C1365.32 340.195 1365.22 340.235 1365.12 340.268L1319.59 235.665C1322.24 233.793 1323.59 230.418 1322.72 227.098C1321.58 222.825 1317.21 220.272 1312.94 221.397C1309.68 222.253 1307.44 224.991 1307.04 228.131L1157.52 236.697L1157.5 236.603C1156.37 232.33 1152 229.777 1147.73 230.903C1143.45 232.028 1140.9 236.404 1142.02 240.677C1142.38 242.021 1143.05 243.192 1143.94 244.135L1058.01 338.172C1056.13 336.803 1053.68 336.259 1051.25 336.897C1048.04 337.743 1045.8 340.428 1045.36 343.526L859.817 338.722C859.779 338.272 859.71 337.821 859.591 337.371C858.465 333.097 854.089 330.544 849.815 331.67C847.835 332.192 846.231 333.416 845.186 335.001L755.932 287.219C756.597 285.647 756.771 283.855 756.303 282.076C755.179 277.803 750.801 275.252 746.528 276.376C744.436 276.928 742.761 278.261 741.722 279.978L592.926 207.884C593.489 206.384 593.615 204.705 593.176 203.039C592.051 198.765 587.674 196.213 583.402 197.339C579.128 198.464 576.576 202.841 577.701 207.115C578.17 208.895 579.209 210.37 580.565 211.412L522.106 303.974C520.418 303.113 518.423 302.838 516.445 303.358C512.606 304.371 510.165 308.006 510.524 311.834L253.164 359.976L253.299 360.7C252.565 357.919 250.45 355.875 247.887 355.092L268.615 254.229C269.566 254.334 270.55 254.278 271.532 254.02C275.805 252.895 278.356 248.518 277.231 244.244C276.107 239.972 271.729 237.42 267.456 238.545C264.84 239.234 262.874 241.144 261.997 243.503L47.0004 185.701C47.1449 184.68 47.0932 183.614 46.8134 182.554C45.954 179.29 43.1974 177.037 40.0396 176.652L44.9281 82.631C45.352 82.5905 45.7776 82.524 46.2034 82.4125C50.4764 81.2858 53.0279 76.9101 51.9042 72.6373C50.7786 68.3634 46.4019 65.8119 42.1281 66.9365C39.7414 67.5655 37.8942 69.2088 36.9234 71.2801L-219.625 -5.13502C-219.392 -6.29356 -219.405 -7.51752 -219.726 -8.73683C-220.852 -13.0098 -225.228 -15.5633 -229.5 -14.4366Z" fill="black"/>
</svg>
