<svg width="28" height="31" viewBox="0 0 28 31" fill="none" xmlns="http://www.w3.org/2000/svg">
<path fill-rule="evenodd" clip-rule="evenodd" d="M27.2683 24.9302L27.2662 24.926L27.2619 24.9176L25.2967 21.1612C24.1785 19.0212 23.1871 17.4954 20.5996 17.3562C19.543 17.2987 18.8666 17.1066 18.1026 16.2155C18.0219 16.121 17.8891 15.9818 17.758 15.847C18.7298 14.9018 19.4718 13.7201 19.7983 12.548H20.3556C21.2905 12.548 22.0513 11.7804 22.0513 10.837V10.0064C22.0513 9.47953 21.8139 9.00773 21.4415 8.69367V7.0493C21.4415 4.87383 20.5989 3.04266 19.0054 1.7543C17.6059 0.622969 15.7288 0 13.7195 0C11.6812 0 9.77663 0.639844 8.35632 1.80187C6.73444 3.12891 5.8771 5.01961 5.8771 7.26961V8.69531C5.84101 8.72578 5.80562 8.75766 5.77187 8.79141C5.44632 9.11625 5.26702 9.5482 5.26702 10.0083V10.8389C5.26702 11.7823 6.0278 12.5496 6.96272 12.5496H7.5203C7.87022 13.8061 8.6971 15.0722 9.77218 16.0467C9.71265 16.1098 9.65944 16.1679 9.6189 16.215C8.85273 17.1087 8.17702 17.3006 7.12163 17.3564C4.95718 17.4734 3.92218 18.5285 2.95374 20.193C2.82765 20.4094 2.90101 20.6869 3.11757 20.813C3.18929 20.8547 3.26757 20.8746 3.34515 20.8746C3.50124 20.8746 3.65335 20.7938 3.73749 20.6491C4.5953 19.1749 5.3964 18.3579 7.17015 18.262C7.57397 18.2407 7.94804 18.1969 8.30311 18.1078C9.30554 19.5272 11.3664 20.3836 13.7701 20.3836C13.8702 20.3836 13.9708 20.382 14.072 20.3789C16.4385 20.3091 18.4366 19.4477 19.4015 18.1062C19.7568 18.1955 20.1351 18.2393 20.5506 18.262C22.5984 18.372 23.3575 19.4081 24.493 21.5817L25.8911 24.2536C24.9613 24.0253 23.8764 24.0635 22.4694 24.3612L22.6902 22.1515C22.72 21.8484 22.6199 21.5527 22.4083 21.319C22.1805 21.0675 21.8556 20.9234 21.5174 20.9234H15.1141C14.8635 20.9234 14.6605 21.1263 14.6605 21.3766C14.6605 21.6272 14.8637 21.8302 15.1141 21.8302H21.5174C21.5976 21.8302 21.6815 21.8677 21.7361 21.9279C21.775 21.9705 21.7921 22.0158 21.7876 22.0617L21.13 28.65C21.1298 28.6505 21.1298 28.6512 21.1298 28.6516L21.0456 29.4937C21.0304 29.6477 20.9394 29.8132 20.7756 29.8132H6.94562C6.78905 29.8132 6.69108 29.6524 6.67538 29.4933L6.59147 28.6523L6.59128 28.6509L6.59124 28.6493L6.21952 24.9272C6.21882 24.9073 6.21694 24.8876 6.21366 24.8684L5.93358 22.0622C5.9289 22.0158 5.94624 21.9705 5.98491 21.9279C6.03976 21.8674 6.12343 21.8302 6.20358 21.8302H12.8266C13.0769 21.8302 13.2798 21.627 13.2798 21.3766C13.2798 21.1261 13.0769 20.9231 12.8266 20.9231H6.20358C5.86538 20.9231 5.54077 21.0675 5.31296 21.319C5.10132 21.5527 5.00101 21.8482 5.03101 22.1517L5.25155 24.3607C3.8446 24.0635 2.75968 24.0253 1.83015 24.2536L2.90077 22.2077C3.01679 21.986 2.93124 21.7118 2.70929 21.5958C2.48733 21.4795 2.21335 21.5655 2.09733 21.7873L0.459053 24.9178L0.4577 24.9206C0.456814 24.9225 0.455928 24.9244 0.454834 24.9263L0.452725 24.9305C-0.0856347 25.9664 -0.144463 26.8465 0.279521 27.5463C0.932959 28.6259 2.67765 29.1506 5.61249 29.1506H5.72991L5.77304 29.583C5.83819 30.2419 6.33132 30.7202 6.94562 30.7202H20.7754C21.3899 30.7202 21.883 30.2419 21.948 29.5833L21.9913 29.1506H22.1104C25.0441 29.1506 26.788 28.6259 27.4417 27.5463C27.8655 26.8465 27.8069 25.9662 27.2683 24.9302ZM19.0745 8.29734H16.1694C14.0057 8.29734 13.1398 7.76974 12.3768 7.30481L12.3763 7.30453C12.2249 7.21172 12.0918 7.12313 11.9631 7.03734L11.9627 7.03705C11.5846 6.78545 11.253 6.56484 10.8705 6.56484C10.8287 6.56484 10.7863 6.56766 10.7432 6.57305C10.2524 6.63586 9.88163 7.0425 9.47593 7.63406C9.08687 8.20148 8.86772 8.29734 8.52366 8.29734H8.24382V7.39289C8.24382 4.20188 11.1238 2.47195 13.8339 2.46445H13.8515C16.2512 2.46445 19.0523 3.85383 19.0745 7.77094V8.29734ZM20.3556 11.6412C20.7906 11.6412 21.1445 11.2805 21.1445 10.837V10.0064C21.1445 9.71625 20.9924 9.46219 20.7655 9.32086C20.7538 9.3143 20.7423 9.30727 20.7316 9.29977C20.6198 9.23766 20.4916 9.2025 20.3556 9.2025L19.9816 9.2032V11.2898C19.9816 11.4059 19.975 11.5233 19.9649 11.6412H20.3556ZM6.7839 7.26961C6.7839 2.89805 10.3792 0.906797 13.7195 0.906797C15.5219 0.906797 17.1967 1.45828 18.4351 2.45953C19.8086 3.56977 20.5344 5.15695 20.5344 7.0493V8.30531C20.4754 8.29898 20.4154 8.2957 20.3547 8.2957L19.9816 8.29641V7.76836C19.9572 3.47531 16.889 1.55742 13.8517 1.55742H13.8313C12.2043 1.56211 10.5911 2.11359 9.40491 3.07078C8.07132 4.1468 7.33679 5.68195 7.33679 7.39289V8.29734H6.9639H6.95944C6.90038 8.29734 6.84179 8.30062 6.7839 8.30672V7.26961ZM6.17382 10.8389C6.17382 11.2821 6.52772 11.6428 6.96272 11.6428V11.643H7.35366C7.34358 11.5245 7.33702 11.4066 7.33702 11.2898V9.20438H6.96272H6.96085C6.75483 9.20438 6.56054 9.2857 6.41241 9.43336C6.25843 9.58687 6.17382 9.79102 6.17382 10.0083V10.8389ZM8.32327 12.0239C8.32163 12.0138 8.31976 12.0035 8.31741 11.9937C8.26983 11.7551 8.24382 11.5193 8.24382 11.2898V9.20414H8.5239C9.33319 9.20414 9.78882 8.78156 10.2241 8.14688C10.6265 7.56 10.8016 7.47984 10.858 7.47258C10.9597 7.45894 11.2077 7.62397 11.4503 7.78542L11.4503 7.78543L11.4606 7.79227C11.5898 7.87852 11.7365 7.97602 11.9033 8.0782L11.9038 8.07849C12.7269 8.58 13.7511 9.20414 16.1694 9.20414H19.0745V11.2898C19.0745 11.5174 19.0487 11.7513 19.0021 11.988C18.9988 12.0014 18.9962 12.0148 18.9944 12.0286C18.6107 13.8713 16.8944 15.8857 14.9699 16.6127C14.0031 16.9762 13.319 16.9767 12.3555 16.6146C10.4251 15.8892 8.70483 13.871 8.32327 12.0239ZM9.17991 17.7621C10.1033 18.8871 11.9254 19.5352 14.0451 19.4723C15.9869 19.4152 17.6744 18.7561 18.5235 17.7567C18.1466 17.5413 17.7841 17.2371 17.4137 16.8054C17.3432 16.7229 17.1998 16.5738 17.0734 16.444C16.5203 16.8736 15.9173 17.2245 15.2896 17.4614C14.7025 17.6822 14.1805 17.7926 13.6593 17.7926C13.1392 17.7926 12.6198 17.6829 12.0362 17.4635C11.4937 17.2596 10.9691 16.9702 10.4795 16.6188C10.4099 16.6917 10.3473 16.7588 10.307 16.8056C9.9346 17.2399 9.56429 17.546 9.17991 17.7621ZM5.61249 28.2436C2.42991 28.2436 1.37757 27.6089 1.05507 27.0764C0.818818 26.6862 0.868975 26.1417 1.20272 25.4571C2.21874 24.9188 3.4471 24.8745 5.34647 25.3102L5.63921 28.2436H5.61249ZM22.1104 28.2436C25.2916 28.2436 26.3434 27.6089 26.6659 27.0766C26.9022 26.6864 26.8523 26.1417 26.5183 25.4571C25.502 24.9185 24.2737 24.8745 22.3748 25.3106L22.0818 28.2436H22.1104Z" fill="#E83F65"/>
<path fill-rule="evenodd" clip-rule="evenodd" d="M13.8613 27.5895C12.7846 27.5895 11.9088 26.7964 11.9088 25.8216C11.9088 24.8466 12.7846 24.0535 13.8613 24.0535C14.938 24.0535 15.8141 24.8466 15.8141 25.8216C15.8141 26.7964 14.938 27.5895 13.8613 27.5895ZM14.9073 25.8216C14.9073 25.3467 14.4381 24.9605 13.8613 24.9605C13.2848 24.9605 12.8155 25.3467 12.8155 25.8216C12.8155 26.2964 13.2848 26.6827 13.8613 26.6827C14.4381 26.6827 14.9073 26.2964 14.9073 25.8216Z" fill="#E83F65"/>
<path d="M11.6767 12.2272C11.927 12.2272 12.13 12.0242 12.13 11.7737V11.2135C12.13 10.9632 11.927 10.7603 11.6767 10.7603C11.4262 10.7603 11.2232 10.9632 11.2232 11.2135V11.7737C11.2232 12.0242 11.4262 12.2272 11.6767 12.2272Z" fill="#E83F65"/>
<path d="M15.5971 12.2272C15.8476 12.2272 16.0506 12.0242 16.0506 11.7737V11.2135C16.0506 10.9632 15.8476 10.7603 15.5971 10.7603C15.3468 10.7603 15.1438 10.9632 15.1438 11.2135V11.7737C15.1438 12.0242 15.3468 12.2272 15.5971 12.2272Z" fill="#E83F65"/>
</svg>
