<svg width="39" height="31" viewBox="0 0 39 31" fill="none" xmlns="http://www.w3.org/2000/svg">
<path fill-rule="evenodd" clip-rule="evenodd" d="M36.9 12.9541C36.9 12.5402 37.2356 12.2041 37.65 12.2041C38.0639 12.2041 38.4 12.5402 38.4 12.9541V15.627C38.4 17.988 36.4793 19.9088 34.1182 19.9088H30.1537L23.9105 26.1518C23.767 26.2955 23.5753 26.3716 23.3801 26.3716C23.2833 26.3716 23.1858 26.3529 23.0932 26.3145C22.8129 26.1984 22.6301 25.9252 22.6301 25.6216V19.9088H18.8857V23.7295C18.8857 25.3296 17.5842 26.6309 15.9844 26.6309H10.193V29.8181C10.193 30.1216 10.0102 30.3949 9.72984 30.5109C9.63727 30.5494 9.53953 30.5681 9.44297 30.5681C9.24797 30.5681 9.05602 30.492 8.91234 30.3483L5.19516 26.6309H2.90133C1.30172 26.6309 0 25.3296 0 23.7295V16.8183C0 15.2182 1.30172 13.917 2.90133 13.917H8.36016V4.28156C8.36016 1.9207 10.2809 0 12.642 0H34.1182C36.4793 0 38.4 1.9207 38.4 4.28156V6.95414C38.4 7.36852 38.0639 7.70414 37.65 7.70414C37.2356 7.70414 36.9 7.36852 36.9 6.95414V4.28156C36.9 2.74781 35.652 1.5 34.1182 1.5H12.642C11.1082 1.5 9.86016 2.74781 9.86016 4.28156V15.627C9.86016 17.1609 11.1082 18.4088 12.642 18.4088H23.3801C23.7942 18.4088 24.1301 18.7444 24.1301 19.1588V23.8111L29.3128 18.6281C29.4537 18.4875 29.6442 18.4088 29.8432 18.4088H34.1182C35.652 18.4088 36.9 17.1607 36.9 15.627V12.9541ZM15.9844 25.1309C16.7573 25.1309 17.3859 24.5025 17.3859 23.7295V19.9088H12.642C10.2809 19.9088 8.36016 17.988 8.36016 15.627V15.417H2.90133C2.12859 15.417 1.5 16.0455 1.5 16.8183V23.7295C1.5 24.5025 2.12859 25.1309 2.90133 25.1309H5.5057C5.70469 25.1309 5.89547 25.2101 6.03609 25.3507L8.69297 28.0076V25.8809C8.69297 25.467 9.02859 25.1309 9.44297 25.1309H15.9844Z" fill="#E83F65"/>
<path d="M30.6926 4.91479H16.0676C15.6535 4.91479 15.3176 5.25065 15.3176 5.66479C15.3176 6.07917 15.6535 6.41479 16.0676 6.41479H30.6926C31.1068 6.41479 31.4426 6.07917 31.4426 5.66479C31.4426 5.25065 31.1068 4.91479 30.6926 4.91479Z" fill="#E83F65"/>
<path d="M31.4426 9.71509C31.4426 9.30095 31.1068 8.96509 30.6926 8.96509H16.0676C15.6535 8.96509 15.3176 9.30095 15.3176 9.71509C15.3176 10.1295 15.6535 10.4651 16.0676 10.4651H30.6926C31.1068 10.4651 31.4426 10.1295 31.4426 9.71509Z" fill="#E83F65"/>
<path d="M16.0676 13.0151C15.6535 13.0151 15.3176 13.351 15.3176 13.7651C15.3176 14.1795 15.6535 14.5151 16.0676 14.5151H24.5051C24.9193 14.5151 25.2551 14.1795 25.2551 13.7651C25.2551 13.351 24.9193 13.0151 24.5051 13.0151H16.0676Z" fill="#E83F65"/>
<path d="M37.65 9.2041C37.2371 9.2041 36.9 9.54113 36.9 9.9541C36.9 10.3673 37.2371 10.7041 37.65 10.7041C38.063 10.7041 38.4 10.3673 38.4 9.9541C38.4 9.54113 38.063 9.2041 37.65 9.2041Z" fill="#E83F65"/>
</svg>
