<svg width="45" height="30" viewBox="0 0 45 30" fill="none" xmlns="http://www.w3.org/2000/svg">
<path d="M32.4326 12.213L24.855 4.1848C24.3893 3.69085 23.6119 3.66832 23.1179 4.13443C22.6247 4.60016 22.6018 5.37795 23.0679 5.87152L29.8497 13.0559L23.0679 20.2411C22.6018 20.7347 22.6247 21.5121 23.1179 21.9782C23.3555 22.2023 23.659 22.3132 23.9613 22.3132C24.2878 22.3132 24.6138 22.1838 24.8551 21.9286L32.4327 13.9001C32.8794 13.4262 32.8794 12.6864 32.4326 12.213Z" fill="#E83F65"/>
<path d="M9.70019 20.2408L2.91888 13.056L9.70019 5.87123C10.1659 5.37766 10.1434 4.59981 9.64982 4.13414C9.15664 3.66842 8.3784 3.69094 7.91274 4.18451L0.335136 12.2127C-0.111712 12.6861 -0.111712 13.4263 0.335136 13.8998L7.91312 21.9284C8.15478 22.1844 8.48042 22.3134 8.80688 22.3134C9.10915 22.3134 9.4127 22.202 9.64982 21.9779C10.1438 21.5122 10.1659 20.7344 9.70019 20.2408Z" fill="#E83F65"/>
<path d="M18.3718 0.0445579C17.7013 -0.0570101 17.0738 0.403342 16.9714 1.07387L13.3669 24.6668C13.2645 25.3377 13.7253 25.9649 14.3962 26.0673C14.4593 26.0767 14.5215 26.0812 14.5834 26.0812C15.1802 26.0812 15.7037 25.6458 15.7967 25.038L19.4011 1.44501C19.5035 0.77403 19.0427 0.146958 18.3718 0.0445579Z" fill="#E83F65"/>
<path fill-rule="evenodd" clip-rule="evenodd" d="M26.656 12.0205L29.0541 8H43.2L44.3792 27.4611L21.011 29.3641L21.9802 15.1426L26.656 12.0205Z" fill="white"/>
<path fill-rule="evenodd" clip-rule="evenodd" d="M39.9808 15.6926C40.9337 15.6926 41.7088 16.4678 41.7088 17.4206C41.7088 17.8628 41.5419 18.2667 41.2678 18.5726C41.5419 18.8786 41.7088 19.2824 41.7088 19.7246C41.7088 20.5202 41.1683 21.1919 40.4353 21.392C40.5137 21.5891 40.5568 21.8039 40.5568 22.0286C40.5568 22.8242 40.0163 23.4959 39.2833 23.696C39.3617 23.8931 39.4048 24.1079 39.4048 24.3326C39.4048 25.2854 38.6297 26.0606 37.6768 26.0606H34.2208C34.1738 26.0606 34.1268 26.0548 34.0811 26.0434L30.0399 25.0331C29.7706 25.6378 29.1644 26.0606 28.4608 26.0606H26.08C25.7619 26.0606 25.504 25.8027 25.504 25.4846V24.9086H23.776C23.4579 24.9086 23.2 24.6507 23.2001 24.3326V16.2686C23.2001 15.9505 23.458 15.6926 23.7761 15.6926H29.5353C29.9469 15.5788 32.0134 14.9952 33.0639 14.4687C33.9972 14.0008 34.7968 11.9001 34.7968 10.5086C34.7968 10.1905 35.0547 9.93262 35.3728 9.93262C36.1592 9.93262 36.9046 10.2742 37.4179 10.8698C37.9328 11.4672 38.1613 12.2575 38.0449 13.0384C37.9296 13.8119 37.7324 14.833 37.4144 15.6926H39.9808ZM24.352 23.7566H25.504V16.8446H24.352V23.7566ZM29.0368 24.3326C29.0368 24.6502 28.7784 24.9086 28.4608 24.9086H26.656V16.8446H29.0368V24.3326ZM39.9808 19.1486H36.5248C36.2067 19.1486 35.9488 18.8907 35.9488 18.5726C35.9488 18.2545 36.2067 17.9966 36.5248 17.9966H39.9808C40.2984 17.9966 40.5568 17.7382 40.5568 17.4206C40.5568 17.103 40.2984 16.8446 39.9808 16.8446H36.5248C36.3252 16.8446 36.1398 16.7412 36.0349 16.5714C35.9299 16.4016 35.9204 16.1896 36.0097 16.011C36.2904 15.4495 36.6327 14.6984 36.9055 12.8685C36.9725 12.4195 36.8412 11.9651 36.5454 11.6219C36.3709 11.4196 36.1497 11.2684 35.9047 11.1787C35.7131 12.7376 34.903 14.8353 33.5802 15.4985C32.6144 15.9827 30.966 16.4823 30.1888 16.7055V23.8829L34.2918 24.9086H37.6768C37.9944 24.9086 38.2528 24.6502 38.2528 24.3326C38.2528 24.015 37.9944 23.7566 37.6768 23.7566H36.5248C36.2067 23.7566 35.9488 23.4987 35.9488 23.1806C35.9488 22.8625 36.2067 22.6046 36.5248 22.6046H38.8288C39.1464 22.6046 39.4048 22.3462 39.4048 22.0286C39.4048 21.711 39.1464 21.4526 38.8288 21.4526H36.5248C36.2067 21.4526 35.9488 21.1947 35.9488 20.8766C35.9488 20.5585 36.2067 20.3006 36.5248 20.3006H39.9808C40.2984 20.3006 40.5568 20.0422 40.5568 19.7246C40.5568 19.407 40.2984 19.1486 39.9808 19.1486Z" fill="#E83F65"/>
<path d="M35.9488 6.3999C35.6307 6.3999 35.3728 6.6578 35.3728 6.9759V8.2047C35.3728 8.52281 35.6307 8.7807 35.9488 8.7807C36.2669 8.7807 36.5248 8.52281 36.5248 8.2047V6.9759C36.5248 6.6578 36.2669 6.3999 35.9488 6.3999Z" fill="#E83F65"/>
<path d="M32.6904 9.31581L31.8759 8.50123C31.651 8.27628 31.2862 8.27628 31.0613 8.50123C30.8363 8.72618 30.8363 9.09086 31.0613 9.31581L31.8759 10.1304C32.1008 10.3553 32.4655 10.3553 32.6904 10.1304C32.9154 9.90544 32.9154 9.54076 32.6904 9.31581Z" fill="#E83F65"/>
<path d="M30.7647 12.8127H29.6127C29.2946 12.8127 29.0367 13.0706 29.0367 13.3887C29.0367 13.7068 29.2946 13.9647 29.6127 13.9647H30.7647C31.0828 13.9647 31.3407 13.7068 31.3407 13.3887C31.3407 13.0706 31.0828 12.8127 30.7647 12.8127Z" fill="#E83F65"/>
<path d="M42.2849 12.8127H41.1329C40.8148 12.8127 40.5569 13.0706 40.5569 13.3887C40.5569 13.7068 40.8148 13.9647 41.1329 13.9647H42.2849C42.603 13.9647 42.8609 13.7068 42.8609 13.3887C42.8609 13.0706 42.603 12.8127 42.2849 12.8127Z" fill="#E83F65"/>
<path d="M40.8363 8.50123C40.6114 8.27628 40.2467 8.27628 40.0217 8.50123L39.2072 9.31581C38.9822 9.54076 38.9822 9.90544 39.2072 10.1304C39.4321 10.3553 39.7968 10.3553 40.0217 10.1304L40.8363 9.31581C41.0613 9.09086 41.0613 8.72618 40.8363 8.50123Z" fill="#E83F65"/>
</svg>
