<svg width="31" height="26" viewBox="0 0 31 26" fill="none" xmlns="http://www.w3.org/2000/svg">
<path fill-rule="evenodd" clip-rule="evenodd" d="M12.8 8.96002C12.8 10.3719 13.9482 11.52 15.36 11.52C16.7719 11.52 17.92 10.3719 17.92 8.96002C17.92 7.54818 16.7719 6.40002 15.36 6.40002C13.9482 6.40002 12.8 7.54818 12.8 8.96002ZM14.08 8.96002C14.08 8.25474 14.6535 7.68002 15.36 7.68002C16.0666 7.68002 16.64 8.25474 16.64 8.96002C16.64 9.6653 16.0666 10.24 15.36 10.24C14.6535 10.24 14.08 9.6653 14.08 8.96002Z" fill="#3E4C6F"/>
<path fill-rule="evenodd" clip-rule="evenodd" d="M19.2 14.08C19.2 15.4919 20.3481 16.64 21.76 16.64C23.1718 16.64 24.32 15.4919 24.32 14.08C24.32 12.6682 23.1718 11.52 21.76 11.52C20.3481 11.52 19.2 12.6682 19.2 14.08ZM20.48 14.08C20.48 13.3747 21.0534 12.8 21.76 12.8C22.4665 12.8 23.04 13.3747 23.04 14.08C23.04 14.7853 22.4665 15.36 21.76 15.36C21.0534 15.36 20.48 14.7853 20.48 14.08Z" fill="#3E4C6F"/>
<path d="M15.36 25.6C15.0067 25.6 14.72 25.3133 14.72 24.96V10.88C14.72 10.5267 15.0067 10.24 15.36 10.24C15.7133 10.24 16 10.5267 16 10.88V24.96C16 25.3133 15.7133 25.6 15.36 25.6Z" fill="#3E4C6F"/>
<path d="M18.56 21.76C18.2068 21.76 17.92 21.4733 17.92 21.12V17.28C17.92 17.1098 17.9879 16.9472 18.1069 16.8269L19.9501 14.9837C20.1997 14.7341 20.6055 14.7341 20.8551 14.9837C21.1047 15.2333 21.1047 15.6391 20.8551 15.8887L19.2 17.545V21.12C19.2 21.4733 18.9133 21.76 18.56 21.76Z" fill="#3E4C6F"/>
<path fill-rule="evenodd" clip-rule="evenodd" d="M6.40002 14.08C6.40002 15.4919 7.54818 16.64 8.96002 16.64C10.3719 16.64 11.52 15.4919 11.52 14.08C11.52 12.6682 10.3719 11.52 8.96002 11.52C7.54818 11.52 6.40002 12.6682 6.40002 14.08ZM7.68002 14.08C7.68002 13.3747 8.25346 12.8 8.96002 12.8C9.66658 12.8 10.24 13.3747 10.24 14.08C10.24 14.7853 9.66658 15.36 8.96002 15.36C8.25346 15.36 7.68002 14.7853 7.68002 14.08Z" fill="#3E4C6F"/>
<path d="M12.16 21.76C11.8068 21.76 11.52 21.4732 11.52 21.12V17.5449L9.86371 15.8899C9.61411 15.6403 9.61411 15.2345 9.86371 14.9849C10.1133 14.7353 10.5191 14.7353 10.7687 14.9849L12.6119 16.8281C12.7322 16.9472 12.8 17.1097 12.8 17.28V21.12C12.8 21.4732 12.5133 21.76 12.16 21.76Z" fill="#3E4C6F"/>
<path d="M23.04 20.48H22.4C22.0467 20.48 21.76 20.1933 21.76 19.84C21.76 19.4867 22.0467 19.2 22.4 19.2H23.04C26.569 19.2 29.44 16.329 29.44 12.8C29.44 9.41184 26.7994 6.6112 23.4278 6.42432C23.191 6.41152 22.9824 6.26944 22.8826 6.05568C21.5283 3.1552 18.5766 1.28 15.36 1.28C11.2448 1.28 7.70944 4.3456 7.136 8.4096C7.0912 8.72448 6.82112 8.96 6.5024 8.96C3.57632 8.96 1.28 11.2563 1.28 14.08C1.28 16.9037 3.57632 19.2 6.4 19.2H8.32C8.67328 19.2 8.96 19.4867 8.96 19.84C8.96 20.1933 8.67328 20.48 8.32 20.48H6.4C2.87104 20.48 0 17.609 0 14.08C0 10.6982 2.63552 7.92192 5.95968 7.69536C6.84544 3.27168 10.7942 0 15.36 0C18.9453 0 22.2477 2.01984 23.8758 5.17632C27.744 5.58208 30.72 8.86016 30.72 12.8C30.72 17.0355 27.2755 20.48 23.04 20.48Z" fill="#3E4C6F"/>
</svg>
