<svg width="35" height="35" viewBox="0 0 35 35" fill="none" xmlns="http://www.w3.org/2000/svg">
<path fill-rule="evenodd" clip-rule="evenodd" d="M34.72 13.4266V17.92H33.6V13.4266C33.6 12.679 33.119 12.0321 32.4032 11.8177L28.7968 10.7357C28.4709 11.159 27.8403 11.76 26.88 11.76C25.9197 11.76 25.2891 11.159 24.9632 10.7362L22.5411 11.4633C23.479 11.9897 24.08 12.9853 24.08 14.0913V14.6221C24.7923 13.8942 25.7835 13.4405 26.88 13.4405C29.0415 13.4405 30.8 15.199 30.8 17.3605V19.0405C30.8 20.3689 30.1342 21.5433 29.12 22.2526V23.1033L32.7247 24.1847C33.918 24.5427 34.72 25.6205 34.72 26.8666V31.92H28C27.6916 31.92 27.44 32.1716 27.44 32.48V34.72H7.28V32.48C7.28 32.1716 7.02844 31.92 6.72 31.92H0V26.8666C0 25.6205 0.801992 24.5427 1.99527 24.1842L5.6 23.1027V22.2521C4.58582 21.5433 3.92 20.3689 3.92 19.04V17.36C3.92 15.1985 5.67848 13.44 7.84 13.44C8.96383 13.44 9.97637 13.9182 10.6914 14.6781C10.8388 13.4572 11.3244 12.3413 12.0534 11.4245L9.7568 10.7357C9.43086 11.159 8.80031 11.76 7.84 11.76C6.87969 11.76 6.24914 11.159 5.9232 10.7357L2.31738 11.8177C1.60098 12.0321 1.12 12.679 1.12 13.4266V17.92H0V13.4266C0 12.1805 0.801992 11.1027 1.99527 10.7442L5.6 9.66273V8.81207C4.58582 8.10332 3.92 6.92891 3.92 5.6V3.92C3.92 1.75848 5.67848 0 7.84 0C10.0015 0 11.76 1.75848 11.76 3.92V5.60055C11.76 6.92891 11.0942 8.10332 10.08 8.81262V9.66328L12.9281 10.518C14.0637 9.54844 15.5332 8.96 17.1393 8.96C18.7521 8.96 20.271 9.5498 21.4632 10.6159L24.64 9.66273V8.81207C23.6258 8.10332 22.96 6.92891 22.96 5.6V3.92C22.96 1.75848 24.7185 0 26.88 0C29.0415 0 30.8 1.75848 30.8 3.92V5.60055C30.8 6.92891 30.1342 8.10332 29.12 8.81262V9.66328L32.7247 10.7447C33.918 11.1027 34.72 12.1805 34.72 13.4266ZM10.64 3.92C10.64 2.37617 9.38383 1.12 7.84 1.12C6.29617 1.12 5.04 2.37617 5.04 3.92H5.36812C5.72387 3.92 6.07277 3.77562 6.32406 3.52406L6.72 3.12813L7.11594 3.52406C7.36723 3.77562 7.71613 3.92 8.07187 3.92H10.64ZM5.04 5.6V5.04H5.36812C5.85594 5.04 6.32188 4.9 6.72 4.63859C7.11812 4.9 7.58406 5.04 8.07187 5.04H10.64V5.6C10.64 7.14383 9.38383 8.4 7.84 8.4C6.29617 8.4 5.04 7.14383 5.04 5.6ZM6.72 9.92605C6.85891 10.1399 7.24473 10.64 7.84 10.64C8.43527 10.64 8.82109 10.1404 8.96 9.92551V9.35484C8.60508 9.46121 8.2291 9.52 7.84 9.52C7.4509 9.52 7.07492 9.46121 6.72 9.35539V9.92605ZM23.2332 20.469C23.5184 21.1933 24.0105 21.8127 24.64 22.2526V23.1033L21.0358 24.1847C20.9171 24.22 20.8018 24.2659 20.6891 24.3168L20.16 24.1948V23.0915C20.7586 22.6105 21.2302 21.9789 21.5198 21.2548C22.1648 21.1982 22.7697 20.9237 23.2332 20.469ZM19.04 23.7502C18.521 23.9613 17.9542 24.08 17.36 24.08C16.7658 24.08 16.199 23.9613 15.68 23.7502V24.36L17.36 25.62L19.04 24.36V23.7502ZM14.9923 25.2443L16.3576 26.2686L14.9532 27.1113L14.598 25.3356L14.9923 25.2443ZM18.4144 33.6L17.9788 29.68H16.7412L16.3056 33.6H18.4144ZM18.0761 28.56H16.6433L16.3218 27.5956L17.36 26.973L18.3977 27.5956L18.0761 28.56ZM19.7277 25.2443L18.3624 26.2686L19.7668 27.1108L20.122 25.3351L19.7277 25.2443ZM22.5233 19.6101C22.3295 19.8229 22.0831 19.9719 21.8159 20.0627C21.8315 19.9104 21.84 19.7561 21.84 19.6V16.9203C22.4427 17.1489 22.8911 17.6791 22.9515 18.3127C22.9975 18.7947 22.8457 19.2549 22.5233 19.6101ZM17.36 22.96C19.2131 22.96 20.72 21.4531 20.72 19.6V16.8H19.8138L19.3709 15.9135C18.3091 16.4954 17.1216 16.8 15.9012 16.8H14V19.6C14 21.4531 15.5069 22.96 17.36 22.96ZM12.9041 20.0627C12.6369 19.9719 12.3905 19.8229 12.1967 19.6101C11.8743 19.2555 11.7225 18.7947 11.7685 18.3132C11.8289 17.6796 12.2773 17.1489 12.88 16.9209V19.6C12.88 19.7561 12.8885 19.9104 12.9041 20.0627ZM14.56 23.0915C13.9609 22.6105 13.4892 21.9789 13.2002 21.2548C12.5552 21.1982 11.9503 20.9237 11.4868 20.469C11.2016 21.1933 10.7089 21.8127 10.08 22.2526V23.1033L13.6847 24.1847C13.8029 24.2205 13.9177 24.2659 14.0309 24.3168L14.56 24.1948V23.0915ZM7.84 14.56C9.38383 14.56 10.64 15.8162 10.64 17.36H10.3119C9.95613 17.36 9.60723 17.2156 9.35594 16.9641L8.96 16.5681L8.56406 16.9641C8.31277 17.2156 7.96387 17.36 7.60812 17.36H5.04C5.04 15.8162 6.29617 14.56 7.84 14.56ZM5.04 18.48V19.04C5.04 20.5838 6.29617 21.84 7.84 21.84C9.38383 21.84 10.64 20.5838 10.64 19.04V18.48H10.3119C9.82406 18.48 9.35812 18.34 8.96 18.0786C8.56188 18.34 8.09594 18.48 7.60812 18.48H5.04ZM7.84 22.96C8.2291 22.96 8.60508 22.9012 8.96 22.7948V23.3655C8.82109 23.5804 8.43527 24.08 7.84 24.08C7.24473 24.08 6.85891 23.5799 6.72 23.3661V22.7954C7.07492 22.9012 7.4509 22.96 7.84 22.96ZM4.48 30.8H6.72C7.64613 30.8 8.4 31.5539 8.4 32.48V33.6H11.2V29.12H12.32V33.6H15.1788L15.6693 29.1804L15.3379 28.1859L14.1663 28.8887L13.5062 25.5869L10.5705 26.2645C9.29277 26.5598 8.4 27.6814 8.4 28.9929V29.68H7.28V28.9929C7.28 27.1573 8.52934 25.5864 10.3184 25.1732L11.8803 24.8131L9.7568 24.1757C9.43086 24.599 8.80031 25.2 7.84 25.2C6.87969 25.2 6.24914 24.599 5.9232 24.1757L2.31738 25.2577C1.60098 25.4721 1.12 26.119 1.12 26.8666V30.8H3.36V26.88H4.48V30.8ZM32.4026 25.2577C33.119 25.4721 33.6 26.119 33.6 26.8666V30.8H31.36V26.88H30.24V30.8H28C27.0739 30.8 26.32 31.5539 26.32 32.48V33.6H23.52V29.12H22.4V33.6H19.5412L19.0501 29.1804L19.3815 28.1859L20.5532 28.8887L21.2133 25.5869L24.1495 26.2645C25.4272 26.5598 26.32 27.6814 26.32 28.9929V29.68H27.44V28.9929C27.44 27.1573 26.1907 25.5864 24.4016 25.1732L22.8397 24.8131L24.9632 24.1757C25.2891 24.599 25.9197 25.2 26.88 25.2C27.8403 25.2 28.4709 24.599 28.7968 24.1757L32.4026 25.2577ZM26.88 24.08C27.4753 24.08 27.8611 23.5804 28 23.3661V22.7948C27.6451 22.9012 27.2691 22.96 26.88 22.96C26.4909 22.96 26.1149 22.9012 25.76 22.7948V23.3661C25.8973 23.5782 26.2836 24.08 26.88 24.08ZM26.88 21.84C25.3362 21.84 24.08 20.5838 24.08 19.04V18.48H24.4081C24.8959 18.48 25.3619 18.34 25.76 18.0786C26.1581 18.34 26.6241 18.48 27.1119 18.48H29.68V19.04C29.68 20.5838 28.4238 21.84 26.88 21.84ZM29.68 17.36C29.68 15.8162 28.4238 14.56 26.88 14.56C25.3362 14.56 24.08 15.8162 24.08 17.36H24.4081C24.7639 17.36 25.1128 17.2156 25.3641 16.9641L25.76 16.5681L26.1559 16.9641C26.4072 17.2156 26.7561 17.36 27.1119 17.36H29.68ZM22.96 16.2876C22.4645 15.9124 21.849 15.68 21.1838 15.68H20.5062L19.8174 14.3024L19.2896 14.6541C18.2823 15.3256 17.1109 15.68 15.9012 15.68H13.5363C12.871 15.68 12.2555 15.9124 11.76 16.2876V15.4593C11.76 12.4936 14.1736 10.08 17.1393 10.08C18.5763 10.08 19.9276 10.6395 20.9434 11.6553L21.5376 12.2495L21.6631 12.2916C22.4386 12.5502 22.96 13.2732 22.96 14.0908V16.2876ZM29.68 3.92C29.68 2.37617 28.4238 1.12 26.88 1.12C25.3362 1.12 24.08 2.37617 24.08 3.92H26.6481C27.0039 3.92 27.3528 3.77562 27.6041 3.52406L28 3.12813L28.3959 3.52406C28.6472 3.77562 28.9961 3.92 29.3519 3.92H29.68ZM24.08 5.6V5.04H26.6481C27.1359 5.04 27.6019 4.9 28 4.63859C28.3981 4.9 28.8641 5.04 29.3519 5.04H29.68V5.6C29.68 7.14383 28.4238 8.4 26.88 8.4C25.3362 8.4 24.08 7.14383 24.08 5.6ZM25.76 9.92605C25.8973 10.1382 26.2836 10.64 26.88 10.64C27.4753 10.64 27.8611 10.1404 28 9.92551V9.35484C27.6451 9.46121 27.2691 9.52 26.88 9.52C26.4909 9.52 26.1149 9.46121 25.76 9.35484V9.92605Z" fill="#E83F65"/>
<path d="M12.88 0H14V1.12H12.88V0Z" fill="#E83F65"/>
<path d="M12.88 2.23999H14V8.39999H12.88V2.23999Z" fill="#E83F65"/>
<path d="M20.72 0H21.84V1.12H20.72V0Z" fill="#E83F65"/>
<path d="M20.72 2.23999H21.84V8.39999H20.72V2.23999Z" fill="#E83F65"/>
<path d="M15.12 2.23999H16.24V6.15999H15.12V2.23999Z" fill="#E83F65"/>
<path d="M15.12 7.28003H16.24V8.40003H15.12V7.28003Z" fill="#E83F65"/>
<path d="M18.48 2.23999H19.6V6.15999H18.48V2.23999Z" fill="#E83F65"/>
<path d="M18.48 7.28003H19.6V8.40003H18.48V7.28003Z" fill="#E83F65"/>
</svg>
