<svg width="29" height="29" viewBox="0 0 29 29" fill="none" xmlns="http://www.w3.org/2000/svg">
<path fill-rule="evenodd" clip-rule="evenodd" d="M22.4264 14.2668C22.4264 9.76729 18.766 6.10681 14.2664 6.10681C9.76693 6.10681 6.10645 9.76729 6.10645 14.2668C6.10645 16.7532 7.22725 18.9795 8.98645 20.4771V23.1881L6.72709 25.4475C6.63685 25.5372 6.58645 25.6591 6.58645 25.7868V26.7468H7.54645V25.9855L9.80581 23.7262C9.89605 23.6364 9.94645 23.5145 9.94645 23.3868V21.1769C10.3991 21.4606 10.8805 21.7006 11.3864 21.8921V24.1481L10.0871 25.4475C9.99685 25.5372 9.94645 25.6591 9.94645 25.7868V26.7468H10.9064V25.9855L12.2058 24.6862C12.296 24.5964 12.3464 24.4745 12.3464 24.3468V22.1892C12.8125 22.302 13.2935 22.3735 13.7864 22.4023V26.7468H14.7464V22.4023C15.2394 22.3735 15.7204 22.302 16.1864 22.1892V24.3468C16.1864 24.4745 16.2368 24.5964 16.3271 24.6862L17.6264 25.9855V26.7468H18.5864V25.7868C18.5864 25.6591 18.536 25.5372 18.4458 25.4475L17.1464 24.1481V21.8921C17.6524 21.7001 18.1338 21.4606 18.5864 21.1769V23.3868C18.5864 23.5145 18.6368 23.6364 18.7271 23.7262L20.9864 25.9855V26.7468H21.9464V25.7868C21.9464 25.6591 21.896 25.5372 21.8058 25.4475L19.5464 23.1881V20.4771C21.3056 18.9795 22.4264 16.7532 22.4264 14.2668ZM14.2664 7.06681C15.1199 7.06681 16.0343 8.22793 16.5983 10.1388C15.0613 10.4479 13.4716 10.4479 11.9346 10.1388C12.4986 8.22793 13.413 7.06681 14.2664 7.06681ZM16.8282 11.0705C15.9839 11.2428 15.1256 11.3335 14.2664 11.3335C13.4072 11.3335 12.549 11.2428 11.7047 11.0705C11.5338 11.8836 11.4244 12.7961 11.397 13.7868H17.1359C17.1085 12.7961 16.9991 11.8841 16.8282 11.0705ZM18.0954 14.7468H21.442C21.3469 16.1796 20.8324 17.4963 20.0183 18.5796C19.2916 18.2091 18.5356 17.9134 17.7599 17.6926C17.9519 16.7916 18.0676 15.7995 18.0954 14.7468ZM11.7052 17.4636C13.3928 17.119 15.1405 17.119 16.8282 17.4636C16.9991 16.65 17.1085 15.738 17.1359 14.7468H11.3975C11.4248 15.738 11.5343 16.65 11.7052 17.4636ZM18.0954 13.7868C18.0676 12.7342 17.9519 11.742 17.7599 10.8415C18.5356 10.6207 19.2916 10.3251 20.0183 9.95449C20.8324 11.0379 21.3469 12.3545 21.442 13.7873H18.0954V13.7868ZM7.09093 13.7868H10.4375C10.4653 12.7342 10.581 11.7425 10.773 10.8411C9.99733 10.6207 9.24133 10.3246 8.51461 9.95401C7.70053 11.0374 7.18597 12.354 7.09093 13.7868ZM10.4375 14.7468C10.4653 15.7995 10.581 16.7916 10.773 17.6926C9.99733 17.9129 9.24133 18.2086 8.51461 18.5796C7.70053 17.4963 7.18597 16.1796 7.09093 14.7468H10.4375ZM12.189 21.1587C11.7095 20.5131 11.3063 19.6481 11.0068 18.6233C10.3732 18.8052 9.75301 19.0395 9.15445 19.3303C9.98773 20.1718 11.0269 20.8078 12.189 21.1587ZM16.5983 18.3948C16.0343 20.3057 15.1199 21.4668 14.2664 21.4668C13.413 21.4668 12.4986 20.3057 11.9346 18.3948C13.4716 18.0857 15.0613 18.0857 16.5983 18.3948ZM19.3789 19.3299C18.7799 19.0395 18.1597 18.8052 17.5261 18.6233C17.2266 19.6481 16.8234 20.5131 16.3444 21.1582C17.5064 20.8073 18.5456 20.1713 19.3789 19.3299ZM19.3789 9.20377C18.7799 9.49465 18.1597 9.72841 17.5261 9.91033C17.2266 8.88553 16.8234 8.02057 16.3439 7.37497C17.5064 7.72633 18.5452 8.36233 19.3789 9.20377ZM11.0068 9.91081C11.3068 8.88553 11.7095 8.02057 12.189 7.37545C11.0264 7.72633 9.98773 8.36233 9.15397 9.20425C9.75301 9.49465 10.3732 9.72889 11.0068 9.91081Z" fill="#232323"/>
<path d="M20.9865 27.7068H21.9465V28.6668H20.9865V27.7068Z" fill="#232323"/>
<path d="M17.6265 27.7068H18.5865V28.6668H17.6265V27.7068Z" fill="#232323"/>
<path d="M6.58643 27.7068H7.54643V28.6668H6.58643V27.7068Z" fill="#232323"/>
<path d="M9.94641 27.7068H10.9064V28.6668H9.94641V27.7068Z" fill="#232323"/>
<path d="M13.7865 27.7068H14.7465V28.6668H13.7865V27.7068Z" fill="#232323"/>
<path d="M12.5696 4.80747L13.2483 5.48619C13.8099 4.92459 14.7229 4.92459 15.2845 5.48619L15.9632 4.80747C15.0277 3.87195 13.5051 3.87195 12.5696 4.80747H12.5696Z" fill="#232323"/>
<path d="M17.4733 3.3675C15.705 1.59918 12.8279 1.59918 11.0601 3.3675L11.7388 4.04622C13.1327 2.6523 15.4007 2.6523 16.7946 4.04622L17.4733 3.3675Z" fill="#232323"/>
<path d="M18.2471 2.60616L18.9258 1.92744C16.3568 -0.64248 12.176 -0.64248 9.60706 1.92744L10.2858 2.60616C12.4803 0.4116 16.0525 0.4116 18.2471 2.60616Z" fill="#232323"/>
<path d="M4.80711 12.5699C3.87159 13.5055 3.87159 15.028 4.80711 15.9635L5.48583 15.2848C4.92423 14.7232 4.92423 13.8103 5.48583 13.2487L4.80711 12.5699Z" fill="#232323"/>
<path d="M3.36713 11.0599C1.59881 12.8283 1.59881 15.7054 3.36713 17.4732L4.04585 16.7945C2.65193 15.4006 2.65193 13.1326 4.04585 11.7387L3.36713 11.0599Z" fill="#232323"/>
<path d="M2.6058 10.2861L1.92708 9.60742C-0.64236 12.1769 -0.64236 16.3572 1.92708 18.9261L2.6058 18.2474C0.41124 16.0524 0.41124 12.4812 2.6058 10.2861Z" fill="#232323"/>
<path d="M23.0471 13.2487C23.6087 13.8103 23.6087 14.7232 23.0471 15.2848L23.7258 15.9635C24.6614 15.028 24.6614 13.5055 23.7258 12.5699L23.0471 13.2487Z" fill="#232323"/>
<path d="M25.1658 11.0599L24.4871 11.7387C25.881 13.1326 25.881 15.4006 24.4871 16.7945L25.1658 17.4732C26.9341 15.7054 26.9341 12.8283 25.1658 11.0599Z" fill="#232323"/>
<path d="M26.6058 9.60742L25.9271 10.2861C28.1217 12.4812 28.1217 16.0524 25.9271 18.2474L26.6058 18.9261C29.1753 16.3567 29.1753 12.1769 26.6058 9.60742Z" fill="#232323"/>
</svg>
