<svg width="26" height="23" viewBox="0 0 26 23" fill="none" xmlns="http://www.w3.org/2000/svg">
<path d="M23.2442 0H2.35585C1.05685 0 0 1.0568 0 2.35745C0 3.65645 1.05685 4.7133 2.35585 4.7133H23.2442C24.5431 4.7133 25.6 3.65645 25.6 2.35745C25.6 1.0568 24.5431 0 23.2442 0Z" fill="#F97794"/>
<path d="M23.2442 8.7133H2.35585C1.05685 8.7133 0 9.7701 0 11.0708C0 12.3698 1.05685 13.4266 2.35585 13.4266H23.2442C24.5431 13.4266 25.6 12.3698 25.6 11.0708C25.6 9.7701 24.5431 8.7133 23.2442 8.7133V8.7133Z" fill="#F97794"/>
<path d="M23.2442 17.4266H2.35585C1.05685 17.4266 0 18.4835 0 19.7841C0 21.0831 1.05685 22.1399 2.35585 22.1399H23.2442C24.5431 22.1399 25.6 21.0831 25.6 19.7841C25.6 18.4835 24.5431 17.4266 23.2442 17.4266Z" fill="#F97794"/>
</svg>
