<svg width="31" height="21" viewBox="0 0 31 21" fill="none" xmlns="http://www.w3.org/2000/svg">
<path fill-rule="evenodd" clip-rule="evenodd" d="M30.72 5.226C30.7193 4.75962 30.5821 4.28664 30.2788 3.89676L27.8447 0.78228C27.437 0.2646 26.8167 0.00102 26.1968 0C25.8278 0 25.4522 0.09456 25.1203 0.30156L22.7469 1.77816C22.4973 1.93734 22.0694 2.0466 21.656 2.04378C21.3349 2.04516 21.0246 1.9809 20.8197 1.87968L18.4955 0.7539C18.1207 0.57342 17.7028 0.49944 17.2825 0.49872C16.679 0.50154 16.0678 0.64986 15.5766 0.99024L15.3054 1.1805C15.0984 1.07719 14.787 0.922234 14.4326 0.745876L14.3821 0.72078C13.9321 0.50016 13.403 0.41118 12.8685 0.40944C12.3857 0.41082 11.903 0.48522 11.4791 0.66426L9.8961 1.33974C9.63846 1.45146 9.22866 1.52442 8.82162 1.52262C8.41458 1.52436 8.0055 1.4514 7.74786 1.33974L6.16338 0.6639C5.87436 0.54066 5.56542 0.48798 5.25924 0.48762C4.90668 0.48798 4.55622 0.55746 4.23048 0.6894C3.90516 0.82206 3.60318 1.0179 3.3627 1.28664L0.477904 4.5174C0.158164 4.87446 -0.000655916 5.3241 4.08437e-06 5.76672C-0.000655916 6.29454 0.225184 6.82404 0.660784 7.19514L3.35178 9.49098L2.07522 10.8227C1.72332 11.1899 1.54812 11.6661 1.54812 12.1369C1.54746 12.6379 1.74642 13.1437 2.1405 13.5161L2.39946 13.7621C2.64348 13.9936 2.9367 14.1409 3.24354 14.2194C3.08964 14.5025 3.00552 14.8129 3.00618 15.1238C3.00552 15.6251 3.20448 16.1306 3.59784 16.5034L3.59718 16.5031L3.85692 16.7502C4.22664 17.1007 4.70592 17.2752 5.17812 17.2749C5.43192 17.2753 5.68602 17.2243 5.92482 17.1244C6.00864 17.4644 6.18174 17.7877 6.45402 18.046L6.71376 18.2931C7.08348 18.6436 7.56198 18.8181 8.03496 18.8178C8.40468 18.8182 8.77608 18.7092 9.09582 18.4977C9.18936 18.7986 9.34962 19.0838 9.59358 19.3156L9.85332 19.5627C10.2223 19.9132 10.7015 20.0877 11.1739 20.0874C11.6768 20.0878 12.1848 19.8902 12.56 19.4985L13.6882 18.3203L15.221 19.739C15.5879 20.0793 16.0589 20.2486 16.5238 20.2476C17.0345 20.2487 17.5497 20.0441 17.9257 19.6416L18.1703 19.3795C18.3815 19.1526 18.5194 18.8841 18.5994 18.6038L19.1932 19.1519C19.5607 19.4908 20.031 19.6594 20.4952 19.6591C21.0066 19.6594 21.5233 19.4548 21.8996 19.052L22.1429 18.7902C22.4239 18.49 22.582 18.1182 22.6309 17.7385C22.7876 17.7786 22.9464 17.8058 23.1066 17.8058C23.618 17.8058 24.1332 17.6016 24.5099 17.1992L24.7539 16.9373C25.0949 16.5718 25.2646 16.103 25.2639 15.6409C25.2639 15.4974 25.2433 15.3547 25.2115 15.2136C25.6357 15.1574 26.0469 14.9682 26.3596 14.6324L26.6043 14.3702C26.9453 14.0047 27.1143 13.5359 27.1143 13.0734C27.115 12.5645 26.9098 12.0509 26.5048 11.6768L26.0472 11.2541L30.1775 6.68748C30.5483 6.27636 30.7193 5.74716 30.72 5.226ZM3.72084 13.2477C3.50202 13.247 3.288 13.1688 3.12078 13.0103L2.8614 12.7643C2.68194 12.5946 2.59332 12.3688 2.5926 12.137C2.59332 11.9195 2.67114 11.7073 2.8314 11.54L5.44596 8.81166C5.6163 8.63394 5.84358 8.54496 6.07674 8.54466C6.2949 8.54502 6.5082 8.62356 6.6768 8.78238L6.9351 9.0288C6.9351 9.0288 7.20252 9.42426 7.20318 9.6564C7.20252 9.83022 7.15014 9.99954 7.04856 10.1462C7.03986 10.1549 4.22664 13.0868 4.22664 13.0868C4.07724 13.1925 3.9006 13.2469 3.72084 13.2477ZM5.1789 16.2355C5.41206 16.2347 5.63898 16.1461 5.80896 15.9691L9.29544 12.3295C9.45504 12.1623 9.53352 11.9497 9.53424 11.7323C9.53358 11.5001 9.44484 11.2739 9.26616 11.105L9.00642 10.8578C8.83854 10.699 8.62518 10.6208 8.40636 10.6205C8.18472 10.6208 7.9701 10.7036 7.80354 10.8638C7.7742 10.8988 4.28904 14.5267 4.28904 14.5267C4.12956 14.6939 4.05102 14.9062 4.05102 15.1236C4.05102 15.3554 4.14042 15.5819 4.31844 15.7509L4.3191 15.7513L4.57884 15.9981C4.74672 16.1566 4.96008 16.2351 5.1789 16.2355ZM8.66538 17.5116C8.49576 17.689 8.2689 17.7778 8.03568 17.7784C7.81686 17.7781 7.6035 17.6995 7.43562 17.5407L7.17516 17.2939C6.99648 17.1245 6.90708 16.8984 6.90708 16.6666C6.90708 16.4725 6.97308 16.2843 7.09938 16.1276L9.5265 13.5943C9.69024 13.4467 9.89544 13.3688 10.1081 13.3688C10.3269 13.3692 10.5403 13.4474 10.7081 13.6062L10.9686 13.8533C11.1466 14.0223 11.236 14.2485 11.2367 14.4803C11.236 14.6981 11.1568 14.9107 10.9979 15.0775L8.66538 17.5116ZM11.8043 18.7813L13.2771 17.2442C13.4366 17.0774 13.5152 16.8648 13.516 16.647C13.5153 16.4152 13.4266 16.189 13.2486 16.0201L12.9881 15.7732C12.8203 15.614 12.6062 15.5359 12.3881 15.5355C12.1549 15.5359 11.9276 15.6249 11.7573 15.8022L10.2852 17.3392C10.1256 17.5057 10.0471 17.7183 10.0464 17.9362C10.0471 18.168 10.1365 18.3945 10.3145 18.5635L10.5742 18.8103C10.7421 18.9691 10.9555 19.0477 11.1743 19.048C11.4074 19.0474 11.6347 18.9586 11.8043 18.7813ZM26.0714 13.0748C26.0711 13.2883 25.9946 13.4974 25.8396 13.6635L25.5956 13.9253C25.4252 14.1076 25.1941 14.1997 24.9575 14.2001C24.7428 14.1997 24.5326 14.1243 24.3658 13.9701L20.2537 10.1672L19.5427 10.9286L23.9441 15.0061C24.1274 15.1758 24.2195 15.4062 24.2209 15.6415C24.2195 15.8558 24.1438 16.0645 23.9891 16.2307L23.7458 16.4926C23.5755 16.6748 23.3444 16.7666 23.1077 16.7673C22.8931 16.7666 22.6822 16.6909 22.5167 16.5376L18.4036 12.7348L17.6932 13.4962L21.3435 16.8718C21.5194 17.0404 21.6095 17.2648 21.6095 17.4952C21.6095 17.7088 21.5338 17.9179 21.3791 18.0837L21.1351 18.3455C20.9654 18.5278 20.7337 18.6199 20.4964 18.6206C20.281 18.6199 20.0708 18.5441 19.9047 18.3909L16.2617 15.0275H16.2611L16.2604 15.0269L15.5515 15.7896L15.5522 15.7903L15.5658 15.8032L17.3904 17.4871C17.552 17.6533 17.6358 17.8662 17.6365 18.0865C17.6358 18.299 17.5607 18.5071 17.4061 18.673L17.162 18.9351C16.9917 19.1173 16.7613 19.2088 16.5253 19.2095C16.3106 19.2088 16.1005 19.1334 15.9343 18.9795L14.3457 17.5085C14.4839 17.2373 14.5611 16.943 14.5611 16.6477C14.5618 16.1467 14.3628 15.6416 13.9694 15.2685L13.709 15.0214C13.34 14.6712 12.8614 14.4964 12.3892 14.497C12.3681 14.497 12.3469 14.4998 12.3258 14.5026L12.3258 14.5026C12.3103 14.5046 12.2949 14.5066 12.2796 14.5075C12.2796 14.5032 12.2801 14.4987 12.2806 14.4943C12.2811 14.4898 12.2816 14.4854 12.2816 14.481C12.2823 13.9801 11.69 13.1011 11.69 13.1011L11.4302 12.8547C11.1541 12.5929 10.8172 12.4295 10.4668 12.3639C10.5391 12.1594 10.5799 11.9464 10.5799 11.7331C10.5799 11.2322 10.3816 10.7267 9.98826 10.354L9.72852 10.1068C9.3588 9.75636 8.8803 9.58146 8.40798 9.58182C8.37262 9.58182 8.33756 9.58641 8.30249 9.591C8.28287 9.59357 8.26326 9.59613 8.24358 9.5979C8.22858 9.11688 8.03484 8.63622 7.65786 8.27808V8.27772L7.39884 8.03166C7.02912 7.68084 6.55062 7.50594 6.0783 7.5063C5.57454 7.50594 5.06736 7.70352 4.69218 8.0952L4.07502 8.73924L1.34106 6.4074C1.14456 6.23916 1.04646 6.00666 1.04574 5.76792C1.0464 5.56788 1.1145 5.37204 1.2597 5.20944L4.14444 1.97874C4.25892 1.85028 4.42824 1.73406 4.62654 1.65336C4.82484 1.57272 5.04996 1.52844 5.26044 1.52874C5.44374 1.52874 5.61576 1.56192 5.75334 1.62126L7.3371 2.29704C7.78356 2.4852 8.3019 2.56236 8.82282 2.56404C9.34434 2.5623 9.86202 2.48514 10.3085 2.29704L11.8916 1.62156C12.1356 1.51512 12.5038 1.44912 12.87 1.4505C13.2749 1.44804 13.6805 1.53186 13.9158 1.65192C14.0652 1.72626 14.2069 1.79682 14.3385 1.86276L12.724 2.99766C12.2053 3.36246 11.9257 3.9426 11.9264 4.52802C11.9257 4.9155 12.0485 5.30994 12.2985 5.64468L12.2978 5.64396L12.5111 5.93052C12.916 6.46884 13.5475 6.74562 14.1786 6.747C14.535 6.747 14.8981 6.65694 15.2216 6.46284L16.1872 5.883C16.3841 5.76258 16.6814 5.6865 16.9889 5.68788C17.3503 5.68578 17.7143 5.79264 17.9332 5.9535L20.6044 7.86852C21.1988 8.2944 22.1671 9.08436 22.7037 9.58146L25.7954 12.44C25.9785 12.6098 26.0707 12.8392 26.0714 13.0748ZM25.2835 10.5469L29.4023 5.99256C29.574 5.80512 29.677 5.51814 29.6766 5.22648C29.6766 4.96566 29.5953 4.71402 29.455 4.53564L27.0209 1.42116C26.839 1.18416 26.5179 1.03896 26.1974 1.03962C26.0078 1.03962 25.826 1.08852 25.6745 1.18308L23.3004 2.65998C22.819 2.95566 22.2346 3.0813 21.6566 3.08412C21.2067 3.08304 20.7595 3.00522 20.3633 2.81496L18.0392 1.68918C17.8496 1.59558 17.5729 1.53732 17.2831 1.5387C16.866 1.53558 16.4269 1.66092 16.18 1.8396L13.3253 3.8454C13.0913 4.01052 12.9706 4.26462 12.9692 4.52646C12.97 4.69962 13.0226 4.87068 13.1357 5.0232L13.1365 5.02392L13.349 5.31012C13.5298 5.55624 13.8541 5.70744 14.1781 5.70636C14.3593 5.706 14.5338 5.66058 14.6818 5.5716L15.6466 4.99176C16.0522 4.75026 16.5221 4.64862 16.9885 4.64724C17.5365 4.64928 18.0908 4.78794 18.5436 5.1087L21.214 7.02372C21.8619 7.48908 22.8278 8.2776 23.4135 8.81832L25.2835 10.5469Z" fill="#2F2D74"/>
</svg>
