<svg width="30" height="31" viewBox="0 0 30 31" fill="none" xmlns="http://www.w3.org/2000/svg">
<path d="M24.8682 11.7326C24.6339 11.4983 24.254 11.4983 24.0197 11.7326C23.7854 11.9669 23.7854 12.3468 24.0197 12.5811C24.0289 12.5904 24.0385 12.5998 24.0478 12.6084C24.1636 12.7169 24.3109 12.7705 24.4579 12.7705C24.618 12.7705 24.7778 12.7067 24.8959 12.5807C25.1225 12.3389 25.11 11.9591 24.8682 11.7326Z" fill="#544D3E"/>
<path d="M23.6493 10.7471C23.3058 10.5139 22.9532 10.3058 22.6012 10.1287C20.6101 9.12673 18.5001 8.92561 16.4992 9.54697C16.1827 9.64531 16.0058 9.98149 16.1041 10.2979C16.2024 10.6144 16.5385 10.7912 16.8551 10.693C18.5533 10.1655 20.3538 10.3411 22.0617 11.2005C22.363 11.3522 22.6789 11.5388 22.9753 11.7399C23.0785 11.81 23.1957 11.8436 23.3117 11.8436C23.5038 11.8436 23.6926 11.7515 23.8087 11.5805C23.9948 11.3064 23.9234 10.9332 23.6493 10.7471Z" fill="#544D3E"/>
<path fill-rule="evenodd" clip-rule="evenodd" d="M29.1079 18.5118C28.8619 17.9958 28.4545 17.1412 28.4472 16.8586C29.1488 15.1291 28.8929 13.2153 27.7242 11.4647C25.927 8.77232 22.2436 6.81812 18.966 6.81812C17.2334 6.81812 15.5416 7.23128 14.0195 8.01998C13.5829 5.62736 11.4845 3.8075 8.96778 3.8075C6.13542 3.8075 3.83118 6.11174 3.83118 8.94404C3.83118 10.746 4.74954 12.3844 6.28758 13.3267C6.73098 13.5984 6.8313 13.8333 6.86694 14.218V16.2666V17.729C6.86694 18.399 7.41186 18.944 8.08164 18.944H8.28564C8.61522 21.5706 9.88638 23.9553 11.9042 25.7101C11.9232 25.7694 11.9787 26.0472 11.7403 26.8762C11.5549 27.5208 11.2707 28.2367 11.0197 28.8688L11.0182 28.8725L11.018 28.8729L11.018 28.873C10.8499 29.2963 10.7046 29.662 10.6168 29.9385C10.5589 30.1208 10.5914 30.3199 10.7044 30.4744C10.8175 30.6288 10.9973 30.7201 11.1887 30.7201H19.7534C20.0348 30.7201 20.4213 30.5941 20.6646 29.9938C20.7704 29.7329 20.8395 29.4191 20.9126 29.0867L20.9129 29.0855C20.9842 28.7613 21.1513 28.0018 21.3175 27.9101L21.3176 27.9101C21.3186 27.91 21.3284 27.9086 21.3508 27.9121C21.3816 27.917 21.4127 27.9193 21.4439 27.9193C22.3394 27.9193 23.0713 27.9599 23.7171 27.9957H23.7172H23.7172H23.7173L23.7204 27.9958L23.7205 27.9958C25.617 28.1011 26.7617 28.1646 27.766 26.7181C28.2766 25.9825 28.2188 24.9096 28.1575 23.7737L28.1575 23.7735L28.1575 23.7734C28.126 23.1879 28.0934 22.5836 28.1512 22.0813C28.2559 21.9781 28.5181 21.7981 28.6825 21.6853L28.6829 21.685L28.6829 21.685C29.2484 21.2966 29.7823 20.9299 29.7823 20.3723C29.7825 19.9484 29.5261 19.3891 29.1079 18.5118ZM6.91458 12.3034C5.73528 11.581 5.03124 10.3252 5.03124 8.94397C5.03124 6.77329 6.79722 5.00744 8.96784 5.00744C11.1385 5.00744 12.9044 6.77336 12.9044 8.94397C12.9044 10.3252 12.2005 11.581 11.0211 12.3035C10.4606 12.647 10.1275 13.0476 9.96942 13.5889L8.96766 13.5886L7.96638 13.5889C7.80816 13.0477 7.4751 12.647 6.91458 12.3034ZM9.86874 15.6666V14.7891H8.06706V15.6666H9.86874ZM8.08176 17.7439C8.0751 17.7439 8.06706 17.7357 8.06706 17.7289V16.8666H9.86874V17.7289C9.86874 17.7357 9.86064 17.7439 9.85386 17.7439H8.08176ZM28.0029 20.6963L28.0034 20.6959C28.174 20.5788 28.4405 20.3958 28.5644 20.2776C28.4914 20.0071 28.2154 19.4281 28.0247 19.0281C27.4357 17.7926 27.0866 17.0065 27.3221 16.4397C28.045 14.6991 27.397 13.1358 26.7262 12.1309C25.1611 9.78619 21.8249 8.01805 18.9661 8.01805C17.2402 8.01805 15.5605 8.47969 14.0878 9.35479C13.9595 10.9927 13.0684 12.4566 11.6482 13.3267C11.2044 13.5987 11.1044 13.8337 11.0688 14.2192V16.2666V17.7289C11.0688 18.3989 10.5238 18.9439 9.85392 18.9439H9.49674C9.81972 21.2263 10.946 23.2948 12.7122 24.8223C13.5455 25.5427 12.998 27.1389 12.1337 29.3153L12.0524 29.52H19.5629C19.6258 29.3509 19.6931 29.0453 19.7409 28.8277L19.741 28.8274L19.741 28.8274C19.8363 28.3944 19.9443 27.9035 20.1453 27.513C20.541 26.7437 21.134 26.6779 21.4844 26.7192C22.397 26.7205 23.1667 26.7632 23.7869 26.7976C25.6669 26.9021 26.1833 26.8938 26.7803 26.0337C27.0563 25.6361 27.0048 24.6808 26.9593 23.838L26.9593 23.8368C26.9227 23.1579 26.8848 22.4557 26.9752 21.8203C27.0409 21.357 27.4867 21.0509 28.0029 20.6963Z" fill="#544D3E"/>
<path d="M11.9109 8.09622C11.7338 7.43952 11.2933 6.91356 10.6371 6.57498C10.3426 6.42324 9.98074 6.53868 9.82876 6.83328C9.6769 7.12782 9.79246 7.48968 10.087 7.64154C10.4453 7.82634 10.6629 8.07738 10.7523 8.40876C10.8939 8.9334 10.6798 9.50106 10.5858 9.64848C10.4077 9.92796 10.4898 10.2989 10.7693 10.477C10.8692 10.5408 10.9809 10.5711 11.0912 10.5711C11.2894 10.5711 11.4833 10.4731 11.5977 10.2936C11.8536 9.89226 12.1482 8.9757 11.9109 8.09622Z" fill="#544D3E"/>
<path d="M8.96786 0C8.63648 0 8.36786 0.26874 8.36786 0.6V2.31048C8.36786 2.64174 8.63648 2.91048 8.96786 2.91048C9.29918 2.91048 9.56786 2.64174 9.56786 2.31048V0.6C9.56786 0.26874 9.29918 0 8.96786 0Z" fill="#544D3E"/>
<path d="M2.31048 8.36792H0.6C0.26862 8.36792 0 8.63666 0 8.96792C0 9.2993 0.26862 9.56792 0.6 9.56792H2.31054C2.64186 9.56792 2.91048 9.2993 2.91048 8.96792C2.91048 8.63666 2.6418 8.36792 2.31048 8.36792Z" fill="#544D3E"/>
<path d="M6.15855 2.90183L5.30355 1.42115C5.13783 1.13417 4.77081 1.03595 4.48389 1.20155C4.19697 1.36727 4.09863 1.73417 4.26435 2.02115L5.11935 3.50183C5.23053 3.69437 5.43213 3.80195 5.63949 3.80195C5.74131 3.80195 5.84451 3.77603 5.93895 3.72143C6.22593 3.55571 6.32427 3.18881 6.15855 2.90183Z" fill="#544D3E"/>
<path d="M3.50175 5.11951L2.02089 4.26451C1.73397 4.09891 1.36695 4.19725 1.20129 4.48411C1.03557 4.77109 1.13391 5.13799 1.42089 5.30371L2.90175 6.15871C2.99619 6.21331 3.09939 6.23923 3.20115 6.23923C3.40851 6.23923 3.61017 6.13165 3.72135 5.93911C3.88707 5.65225 3.78873 5.28523 3.50175 5.11951Z" fill="#544D3E"/>
<path d="M16.7346 4.48407C16.5688 4.19709 16.2019 4.09875 15.915 4.26447L14.4341 5.11947C14.1472 5.28519 14.0488 5.65221 14.2145 5.93907C14.3257 6.13161 14.5273 6.23919 14.7347 6.23919C14.8364 6.23919 14.9396 6.21326 15.0341 6.15867L16.515 5.30367C16.802 5.13795 16.9003 4.77105 16.7346 4.48407Z" fill="#544D3E"/>
<path d="M3.72166 11.9969C3.55606 11.7099 3.18922 11.6117 2.90218 11.7771L1.42096 12.6321C1.13398 12.7977 1.03558 13.1648 1.20124 13.4517C1.31236 13.6443 1.51408 13.7519 1.72144 13.7519C1.8232 13.7519 1.92634 13.7259 2.02084 13.6715L3.502 12.8165C3.78898 12.6509 3.88738 12.2838 3.72166 11.9969Z" fill="#544D3E"/>
<path d="M5.81548 14.428C5.52862 14.2624 5.1616 14.3607 4.99588 14.6476L4.26424 15.9149C4.09858 16.2019 4.19692 16.5689 4.4839 16.7345C4.5784 16.7891 4.68154 16.8151 4.7833 16.8151C4.99066 16.8151 5.19238 16.7075 5.3035 16.5149L6.03514 15.2476C6.20086 14.9606 6.10252 14.5937 5.81548 14.428Z" fill="#544D3E"/>
<path d="M13.452 1.20148C13.165 1.03576 12.7981 1.1341 12.6324 1.42108L11.7774 2.90176C11.6117 3.18874 11.71 3.5557 11.997 3.72136C12.0915 3.77596 12.1947 3.80188 12.2964 3.80188C12.5038 3.80188 12.7054 3.6943 12.8166 3.50176L13.6716 2.02108C13.8373 1.7341 13.739 1.3672 13.452 1.20148Z" fill="#544D3E"/>
</svg>
