<svg width="26" height="26" viewBox="0 0 26 26" fill="none" xmlns="http://www.w3.org/2000/svg">
<path fill-rule="evenodd" clip-rule="evenodd" d="M13 26C20.1797 26 26 20.1797 26 13C26 5.8203 20.1797 0 13 0C5.8203 0 0 5.8203 0 13C0 20.1797 5.8203 26 13 26Z" fill="#F97794"/>
<path opacity="0.9" d="M19.2849 19.288L19.288 19.2875V14.7809C19.288 12.5762 18.8134 10.8779 16.236 10.8779C14.9969 10.8779 14.1654 11.5579 13.826 12.2025H13.7902V11.0838H11.3464V19.2875H13.891V15.2253C13.891 14.1558 14.0938 13.1215 15.4183 13.1215C16.7234 13.1215 16.7429 14.3421 16.7429 15.2939V19.288H19.2849Z" fill="white"/>
<path opacity="0.9" d="M7.20276 11.084H9.75047V19.2878H7.20276V11.084Z" fill="white"/>
<path opacity="0.9" d="M8.47558 7C7.66099 7 7 7.66099 7 8.47558C7 9.29018 7.66099 9.96499 8.47558 9.96499C9.29018 9.96499 9.95117 9.29018 9.95117 8.47558C9.95066 7.66099 9.28966 7 8.47558 7Z" fill="white"/>
</svg>
