<svg width="25" height="22" viewBox="0 0 25 22" fill="none" xmlns="http://www.w3.org/2000/svg">
<path fill-rule="evenodd" clip-rule="evenodd" d="M22.3191 0H2.25694C1.0125 0 0 1.0125 0 2.25694V13.8975C0 15.1419 1.0125 16.1544 2.25694 16.1544H9.73069L9.50531 20.0331H7.79906C7.38356 20.0331 7.04681 20.37 7.04681 20.7855C7.04681 21.201 7.38356 21.5378 7.79906 21.5378H16.7769C17.1924 21.5378 17.5292 21.201 17.5292 20.7855C17.5292 20.37 17.1924 20.0331 16.7769 20.0331H15.0707L14.8453 16.1544H22.3191C23.5635 16.1544 24.576 15.1419 24.576 13.8975V2.25694C24.576 1.0125 23.5635 0 22.3191 0ZM11.0124 20.0331L11.238 16.1546H13.338L13.5636 20.0331H11.0124ZM22.3191 14.6497C22.7338 14.6497 23.0713 14.3123 23.0713 13.8975V2.25694C23.0713 1.84219 22.734 1.50469 22.3191 1.50469H2.25694C1.84219 1.50469 1.50469 1.84219 1.50469 2.25694V13.8975C1.50469 14.3123 1.84219 14.6497 2.25694 14.6497H22.3191Z" fill="#C13B3B"/>
</svg>
