<svg width="17" height="28" viewBox="0 0 17 28" fill="none" xmlns="http://www.w3.org/2000/svg">
<path fill-rule="evenodd" clip-rule="evenodd" d="M14.5687 0H2.17134C0.974052 0 0 0.974052 0 2.17134V25.4767C0 26.6739 0.974052 27.648 2.17134 27.648H14.5687C15.7659 27.648 16.74 26.6739 16.74 25.4767V2.17134C16.74 0.974052 15.7659 0 14.5687 0ZM5.83972 1.62H10.9055V2.43562H5.83972V1.62ZM14.5687 26.028C14.8726 26.028 15.12 25.7807 15.12 25.4767H15.1199V2.17134C15.1199 1.86732 14.8726 1.62 14.5686 1.62H12.5255V2.65518C12.5255 3.42733 11.8981 4.05556 11.127 4.05556H5.61821C4.84709 4.05556 4.21972 3.42733 4.21972 2.65518V1.62H2.17134C1.86732 1.62 1.62 1.86732 1.62 2.17134V25.4767C1.62 25.7807 1.86732 26.028 2.17134 26.028H14.5687Z" fill="#F97794"/>
</svg>
