<svg width="17" height="28" viewBox="0 0 17 28" fill="none" xmlns="http://www.w3.org/2000/svg">
<path fill-rule="evenodd" clip-rule="evenodd" d="M14.5687 0H2.17134C0.974052 0 0 0.974052 0 2.17134V25.4767C0 26.6739 0.974052 27.648 2.17134 27.648H14.5687C15.7659 27.648 16.74 26.6739 16.74 25.4767V2.17134C16.74 0.974052 15.7659 0 14.5687 0ZM5.83972 1.62H10.9055V2.43562H5.83972V1.62ZM14.5687 26.028C14.8726 26.028 15.12 25.7807 15.12 25.4767H15.1199V2.17134C15.1199 1.86732 14.8726 1.62 14.5686 1.62H12.5255V2.65518C12.5255 3.42733 11.8981 4.05556 11.127 4.05556H5.61821C4.84709 4.05556 4.21972 3.42733 4.21972 2.65518V1.62H2.17134C1.86732 1.62 1.62 1.86732 1.62 2.17134V25.4767C1.62 25.7807 1.86732 26.028 2.17134 26.028H14.5687Z" fill="#F97794"/>
<path d="M10.5886 23.3336H6.15644C5.7091 23.3336 5.34644 23.6963 5.34644 24.1436C5.34644 24.591 5.7091 24.9536 6.15644 24.9536H10.5886C11.036 24.9536 11.3986 24.591 11.3986 24.1436C11.3986 23.6963 11.036 23.3336 10.5886 23.3336Z" fill="#F97794"/>
<path fill-rule="evenodd" clip-rule="evenodd" d="M12.0406 13.0127H12.7095C13.1569 13.0127 13.5197 13.3752 13.5197 13.8226C13.5197 14.2699 13.157 14.6326 12.7097 14.6326H12.0414C11.9454 15.0705 11.7732 15.4801 11.5395 15.8466L12.0167 16.3254C12.3324 16.6422 12.3316 17.155 12.0148 17.4709C11.8568 17.6284 11.6498 17.7072 11.443 17.7072C11.2352 17.7072 11.0275 17.6278 10.8693 17.469L10.3964 16.9947C10.0309 17.2299 9.62235 17.4034 9.18538 17.5004V18.1747C9.18538 18.622 8.82271 18.9847 8.37538 18.9847C7.92804 18.9847 7.56538 18.622 7.56538 18.1747V17.5015C7.12906 17.4053 6.72098 17.2328 6.35572 16.9988L5.88425 17.4718C5.72598 17.6305 5.51829 17.7099 5.31055 17.7099C5.10368 17.7099 4.89681 17.6312 4.73869 17.4736C4.42188 17.1578 4.42101 16.6449 4.73686 16.3281L5.21028 15.8532C4.97484 15.4857 4.80139 15.0747 4.70473 14.6352H4.03583C3.58849 14.6352 3.22583 14.2726 3.22583 13.8252C3.22583 13.3779 3.58849 13.0152 4.03583 13.0152H4.70413C4.80058 12.575 4.97413 12.1633 5.20984 11.7953L4.73405 11.318C4.4182 11.0012 4.41901 10.4883 4.73589 10.1725C5.05265 9.85666 5.56554 9.85747 5.88139 10.1743L6.35491 10.6494C6.71958 10.4157 7.12706 10.2432 7.56262 10.1469V9.47321C7.56262 9.02587 7.92529 8.66321 8.37262 8.66321C8.81996 8.66321 9.18262 9.02587 9.18262 9.47321V10.147C9.61905 10.2436 10.0272 10.4164 10.3924 10.6508L10.8682 10.1735C11.184 9.85666 11.6968 9.85591 12.0137 10.1717C12.3305 10.4875 12.3314 11.0004 12.0155 11.3172L11.5368 11.7975C11.7713 12.1642 11.9441 12.5743 12.0406 13.0127ZM6.23682 13.824C6.23682 15.0069 7.19494 15.9692 8.37262 15.9692C9.55031 15.9692 10.5084 15.0069 10.5084 13.824C10.5084 12.6411 9.55031 11.6787 8.37262 11.6787C7.19494 11.6787 6.23682 12.6411 6.23682 13.824Z" fill="#F97794"/>
</svg>
