<svg width="18" height="14" viewBox="0 0 18 14" fill="none" xmlns="http://www.w3.org/2000/svg">
<path fill-rule="evenodd" clip-rule="evenodd" d="M15.8685 1H2.35169C1.6062 1 1 1.6062 1 2.35169V11.8135C1 12.5589 1.6062 13.1651 2.35169 13.1651H15.8685C16.614 13.1651 17.2202 12.5589 17.2202 11.8134V2.35169C17.2202 1.6062 16.614 1 15.8685 1ZM2.35169 1.67583H15.8685C15.9031 1.67583 15.9349 1.6846 15.9667 1.6934C15.9807 1.69726 15.9947 1.70112 16.0089 1.70425C14.8387 2.77525 10.9584 6.32506 9.60049 7.54851C9.49423 7.64422 9.32297 7.75839 9.11011 7.75839C8.89725 7.75839 8.72599 7.64421 8.61939 7.54819C7.26162 6.32493 3.3811 2.77494 2.21106 1.70431C2.22538 1.70117 2.23944 1.69729 2.25347 1.69341L2.25347 1.69341C2.28533 1.68461 2.3171 1.67583 2.35169 1.67583ZM1.67583 2.35169V11.8134C1.67583 11.8657 1.68968 11.9136 1.70354 11.9616L1.71153 11.9896C2.61432 11.1287 5.32251 8.5611 7.07239 7.05798C5.31681 5.46153 2.60931 2.98466 1.71366 2.16491L1.70866 2.1817C1.69226 2.23659 1.67583 2.29161 1.67583 2.35169ZM2.35169 12.4893C2.3121 12.4893 2.27574 12.4792 2.23928 12.469C2.22602 12.4653 2.21275 12.4616 2.19931 12.4584C3.13219 11.5691 5.85762 8.98675 7.57674 7.51607C7.80084 7.71936 8.00556 7.90472 8.16693 8.05013C8.44547 8.30161 8.77148 8.43425 9.11008 8.43425C9.44868 8.43425 9.77469 8.30157 10.0529 8.05045C10.2143 7.90497 10.4192 7.71945 10.6434 7.51607C12.3626 8.98659 15.0877 11.5688 16.0209 12.4584C16.0074 12.4616 15.9941 12.4653 15.9809 12.469L15.9809 12.469C15.9444 12.4792 15.9081 12.4893 15.8685 12.4893H2.35169ZM16.5167 11.9614C16.5305 11.9135 16.5443 11.8656 16.5443 11.8134V2.35166C16.5443 2.29156 16.5279 2.23649 16.5115 2.18159C16.5098 2.17601 16.5082 2.17043 16.5065 2.16484C15.6105 2.98491 12.9034 5.46156 11.1478 7.05801C12.8976 8.56094 15.6055 11.1283 16.5087 11.9896C16.5113 11.9802 16.514 11.9708 16.5167 11.9614Z" fill="#F97794"/>
<path d="M15.9667 1.6934L16.04 1.42833L16.04 1.42833L15.9667 1.6934ZM16.0089 1.70425L16.1946 1.90711L16.5855 1.54934L16.0679 1.43565L16.0089 1.70425ZM9.60049 7.54851L9.78453 7.75284L9.78456 7.75282L9.60049 7.54851ZM8.61939 7.54819L8.43532 7.7525L8.43534 7.75252L8.61939 7.54819ZM2.21106 1.70431L2.15218 1.43569L1.63422 1.54923L2.02542 1.90719L2.21106 1.70431ZM2.25347 1.69341L2.32671 1.95848L2.33363 1.95657L2.34044 1.9543L2.25347 1.69341ZM2.25347 1.69341L2.18024 1.42834L2.17332 1.43025L2.16651 1.43252L2.25347 1.69341ZM1.70354 11.9616L1.968 11.8861L1.96772 11.8852L1.70354 11.9616ZM1.71153 11.9896L1.44708 12.065L1.57192 12.5027L1.90131 12.1886L1.71153 11.9896ZM7.07239 7.05798L7.25158 7.26658L7.4876 7.06385L7.25741 6.85452L7.07239 7.05798ZM1.71366 2.16491L1.89932 1.96205L1.57534 1.66551L1.45008 2.08648L1.71366 2.16491ZM1.70866 2.1817L1.97215 2.26041L1.97224 2.26013L1.70866 2.1817ZM2.23928 12.469L2.16555 12.734L2.16556 12.734L2.23928 12.469ZM2.19931 12.4584L2.00956 12.2594L1.64343 12.6084L2.13543 12.7259L2.19931 12.4584ZM7.57674 7.51607L7.7615 7.31239L7.58206 7.14961L7.39797 7.3071L7.57674 7.51607ZM8.16693 8.05013L8.35122 7.84602L8.35102 7.84583L8.16693 8.05013ZM10.0529 8.05045L9.86879 7.84615L9.8686 7.84632L10.0529 8.05045ZM10.6434 7.51607L10.8222 7.30709L10.6381 7.14963L10.4587 7.31238L10.6434 7.51607ZM16.0209 12.4584L16.0847 12.7259L16.5767 12.6084L16.2106 12.2594L16.0209 12.4584ZM15.9809 12.469L15.9071 12.204L15.9019 12.2056L15.9809 12.469ZM15.9809 12.469L16.0546 12.734L16.0599 12.7324L15.9809 12.469ZM16.5167 11.9614L16.7809 12.0377L16.7809 12.0377L16.5167 11.9614ZM16.5115 2.18159L16.775 2.10289L16.775 2.10289L16.5115 2.18159ZM16.5065 2.16484L16.7702 2.08695L16.6456 1.66477L16.3208 1.96198L16.5065 2.16484ZM11.1478 7.05801L10.9628 6.85455L10.7326 7.06389L10.9686 7.26662L11.1478 7.05801ZM16.5087 11.9896L16.3189 12.1886L16.6512 12.5055L16.7737 12.0629L16.5087 11.9896ZM2.35169 1.275H15.8685V0.725H2.35169V1.275ZM1.275 2.35169C1.275 1.75808 1.75808 1.275 2.35169 1.275V0.725C1.45432 0.725 0.725 1.45432 0.725 2.35169H1.275ZM1.275 11.8135V2.35169H0.725V11.8135H1.275ZM2.35169 12.8901C1.75807 12.8901 1.275 12.407 1.275 11.8135H0.725C0.725 12.7108 1.45432 13.4401 2.35169 13.4401V12.8901ZM15.8685 12.8901H2.35169V13.4401H15.8685V12.8901ZM16.9452 11.8134C16.9452 12.407 16.4621 12.8901 15.8685 12.8901V13.4401C16.7658 13.4401 17.4952 12.7108 17.4952 11.8134H16.9452ZM16.9452 2.35169V11.8134H17.4952V2.35169H16.9452ZM15.8685 1.275C16.4621 1.275 16.9452 1.75807 16.9452 2.35169H17.4952C17.4952 1.45432 16.7658 0.725 15.8685 0.725V1.275ZM15.8685 1.40083H2.35169V1.95083H15.8685V1.40083ZM16.04 1.42833C16.0131 1.42091 15.9462 1.40083 15.8685 1.40083V1.95083C15.8625 1.95083 15.8601 1.95004 15.864 1.95084C15.8661 1.95125 15.8692 1.95196 15.8742 1.95325C15.8795 1.95461 15.8852 1.95617 15.8935 1.95847L16.04 1.42833ZM16.0679 1.43565C16.062 1.43435 16.0551 1.4325 16.04 1.42833L15.8935 1.95847C15.9063 1.96201 15.9273 1.96788 15.9499 1.97284L16.0679 1.43565ZM9.78456 7.75282C11.1435 6.52845 15.0248 2.97769 16.1946 1.90711L15.8232 1.50138C14.6526 2.57281 10.7733 6.12167 9.41641 7.3442L9.78456 7.75282ZM9.11011 8.03339C9.42175 8.03339 9.65666 7.86802 9.78453 7.75284L9.41644 7.34418C9.33181 7.42041 9.22418 7.48339 9.11011 7.48339V8.03339ZM8.43534 7.75252C8.5635 7.86796 8.79842 8.03339 9.11011 8.03339V7.48339C8.99609 7.48339 8.88848 7.42046 8.80344 7.34386L8.43534 7.75252ZM2.02542 1.90719C3.19496 2.97737 7.07654 6.52833 8.43532 7.7525L8.80346 7.34388C7.4467 6.12153 3.56724 2.5725 2.39671 1.50143L2.02542 1.90719ZM2.18024 1.42834C2.16504 1.43254 2.15808 1.43439 2.15218 1.43569L2.26995 1.97293C2.29269 1.96795 2.31383 1.96204 2.32671 1.95848L2.18024 1.42834ZM2.16651 1.43252L2.16651 1.43252L2.34044 1.9543L2.34044 1.9543L2.16651 1.43252ZM2.35169 1.40083C2.27403 1.40083 2.20708 1.42092 2.18024 1.42834L2.32671 1.95848C2.33506 1.95617 2.34071 1.95462 2.346 1.95325C2.35103 1.95196 2.35418 1.95124 2.35621 1.95083C2.36013 1.95004 2.35774 1.95083 2.35169 1.95083V1.40083ZM1.95083 11.8134V2.35169H1.40083V11.8134H1.95083ZM1.96772 11.8852C1.96033 11.8596 1.95629 11.8452 1.95351 11.8321C1.95104 11.8204 1.95083 11.8152 1.95083 11.8134H1.40083C1.40083 11.9107 1.42702 11.9953 1.43937 12.038L1.96772 11.8852ZM1.97599 11.9141L1.968 11.8861L1.43909 12.037L1.44708 12.065L1.97599 11.9141ZM6.8932 6.84937C5.13698 8.35794 2.42361 10.9306 1.52175 11.7906L1.90131 12.1886C2.80502 11.3268 5.50805 8.76425 7.25158 7.26658L6.8932 6.84937ZM1.52799 2.36777C2.42361 3.18749 5.13142 5.66464 6.88738 7.26143L7.25741 6.85452C5.5022 5.25841 2.79501 2.78183 1.89932 1.96205L1.52799 2.36777ZM1.97224 2.26013L1.97723 2.24333L1.45008 2.08648L1.44508 2.10327L1.97224 2.26013ZM1.95083 2.35169C1.95083 2.33805 1.95413 2.32075 1.97215 2.26041L1.44516 2.103C1.4304 2.15243 1.40083 2.24517 1.40083 2.35169H1.95083ZM2.16556 12.734C2.19695 12.7427 2.26873 12.7643 2.35169 12.7643V12.2143C2.35542 12.2143 2.35554 12.2148 2.34934 12.2135C2.34173 12.212 2.33275 12.2096 2.313 12.2041L2.16556 12.734ZM2.13543 12.7259C2.14311 12.7277 2.1515 12.73 2.16555 12.734L2.31301 12.2041C2.30055 12.2006 2.2824 12.1955 2.26319 12.191L2.13543 12.7259ZM7.39797 7.3071C5.67224 8.78344 2.94139 11.3711 2.00956 12.2594L2.38906 12.6575C3.32299 11.7672 6.043 9.19006 7.7555 7.72504L7.39797 7.3071ZM8.35102 7.84583C8.18999 7.70073 7.98554 7.51562 7.7615 7.31239L7.39197 7.71975C7.61614 7.9231 7.82113 8.10871 7.98285 8.25443L8.35102 7.84583ZM9.11008 8.15925C8.84703 8.15925 8.58504 8.05712 8.35122 7.84602L7.98265 8.25425C8.30589 8.54609 8.69594 8.70925 9.11008 8.70925V8.15925ZM9.8686 7.84632C9.63515 8.05707 9.37316 8.15925 9.11008 8.15925V8.70925C9.52419 8.70925 9.91424 8.54608 10.2372 8.25457L9.8686 7.84632ZM10.4587 7.31238C10.2345 7.51572 10.0299 7.70099 9.86879 7.84615L10.237 8.25474C10.3988 8.10896 10.6039 7.92319 10.8282 7.71976L10.4587 7.31238ZM16.2106 12.2594C15.2785 11.3707 12.548 8.78328 10.8222 7.30709L10.4647 7.72505C12.1773 9.1899 14.8969 11.7668 15.8311 12.6575L16.2106 12.2594ZM16.0546 12.734C16.0687 12.73 16.0771 12.7277 16.0847 12.7259L15.957 12.191C15.9378 12.1955 15.9196 12.2006 15.9072 12.2041L16.0546 12.734ZM16.0599 12.7324L16.0599 12.7324L15.9019 12.2056L15.9018 12.2056L16.0599 12.7324ZM15.8685 12.7643C15.9515 12.7643 16.0232 12.7427 16.0546 12.734L15.9071 12.2041C15.8874 12.2096 15.8784 12.212 15.8708 12.2135C15.8647 12.2148 15.8648 12.2143 15.8685 12.2143V12.7643ZM2.35169 12.7643H15.8685V12.2143H2.35169V12.7643ZM16.2693 11.8134C16.2693 11.8152 16.2691 11.8204 16.2667 11.8321C16.2639 11.8452 16.2598 11.8596 16.2525 11.8851L16.7809 12.0377C16.7932 11.9951 16.8193 11.9106 16.8193 11.8134H16.2693ZM16.2693 2.35166V11.8134H16.8193V2.35166H16.2693ZM16.248 2.26028C16.266 2.32066 16.2693 2.338 16.2693 2.35166H16.8193C16.8193 2.24512 16.7898 2.15233 16.775 2.10289L16.248 2.26028ZM16.2428 2.24273C16.2446 2.24878 16.2463 2.25475 16.248 2.26029L16.775 2.10289C16.7733 2.09726 16.7718 2.09207 16.7702 2.08695L16.2428 2.24273ZM11.3328 7.26147C13.0888 5.66467 15.7962 3.18773 16.6922 2.3677L16.3208 1.96198C15.4248 2.78209 12.7181 5.25844 10.9628 6.85455L11.3328 7.26147ZM16.6985 11.7906C15.7962 10.9301 13.0832 8.35778 11.327 6.84939L10.9686 7.26662C12.7121 8.7641 15.4148 11.3264 16.3189 12.1886L16.6985 11.7906ZM16.2525 11.8851C16.2498 11.8942 16.2467 11.9051 16.2436 11.9162L16.7737 12.0629C16.7758 12.0552 16.7781 12.0473 16.7809 12.0377L16.2525 11.8851Z" fill="#F97794"/>
</svg>
